<?xml version="1.0" encoding="UTF-8"?>
<svg viewBox="0 0 670 520" xmlns="http://www.w3.org/2000/svg" xmlns:xlink="http://www.w3.org/1999/xlink">
 <defs>
  <linearGradient id="a">
   <stop stop-color="#52b238" offset="0"/>
   <stop stop-color="#7acb04" stop-opacity=".75676" offset="1"/>
  </linearGradient>
  <linearGradient id="d" x1="149.41" x2="246.64" y1="490.62" y2="511.48" gradientUnits="userSpaceOnUse" xlink:href="#a"/>
  <linearGradient id="b" x1="453.41" x2="717.19" gradientUnits="userSpaceOnUse" xlink:href="#a"/>
  <linearGradient id="c" x1="280.2" x2="501.79" gradientUnits="userSpaceOnUse" xlink:href="#a"/>
 </defs>
 <g transform="translate(-64.589 -220.63)">
  <path d="m394.91 382.99c-1.4079 0.0237-3.4236 0.0808-3.7005 1.8503-0.33412 1.5174-0.50594 1.278-0.74011-0.0924-0.50008-1.5511-2.2982-1.1931-3.5155-0.92513-2.9007 0.38086-5.6072 1.4719-8.2337 2.6829-1.2516 0.96676-0.72368 2.871-1.0176 4.2556-0.0178 0.59034-0.0447 1.1646-0.0924 1.7578-0.29874-1.2435-0.6653-2.4372-1.1102-3.608-0.31019-0.58223-1.0124-0.96957-1.6652-0.92514-3.0295 0.92028-5.9517 2.2856-8.7888 3.7005-1.4663 0.65017-1.8365 2.3378-1.8503 3.793-0.14772 1.1097-0.49439 2.2751-0.92513 3.238-0.67344-1.0292-1.6338-2.5343-3.0529-1.8503-2.0242 1.5247-3.9604 3.2986-5.4583 5.3658-0.84499 1.3231-2.7537 2.0158-2.9604 3.7005 0.20782 1.6671 2.192 2.0285 3.238 3.053 2.7915 1.958 5.2928 4.1744 8.0487 6.1984 1.2228 0.70402 2.5724-0.41576 2.7754-1.6652 1.3315-3.2602 3.4797-6.2078 5.8283-8.7888 1.8399-1.8023 3.8167-3.675 6.2909-4.5332 0.26229-0.17585 0.41677-0.33092 0.55508-0.55508 0.72812 0.2691 1.6615 0.16164 2.4054-0.0924 5.9617-1.2109 12.366-0.65798 18.04 1.5727 4.1127 2.2724 8.0145 5.0213 11.287 8.4187 1.0907 0.91107 2.5349 0.10183 3.0529-1.0176 4.0689-5.7721 8.2862-11.557 13.137-16.652 0.98828-0.93435 2.4415-2.2192 1.2952-3.608-2.0546-1.5053-4.6708-1.8299-7.1235-2.3128-1.1619-0.34512-2.5136 0.17526-2.8679 1.3877-0.37275 0.83673-0.70402 1.6386-1.0176 2.4979-0.0829-1.5291 0.43598-3.4821-0.92514-4.5332-1.6781-0.65198-3.5838-0.65878-5.3658-1.0176-1.5004-0.0707-3.3243-0.76616-4.6257 0.18503-0.94142 1.0731-0.63525 2.6739-1.1102 3.9781-0.0118 0.0468-0.0826-0.0207-0.0924 0-0.0447-0.44312 0.0441-2.0468 0-2.4979 0.25549-1.3294-0.74031-2.5499-2.1278-2.4979-2.5204-0.2842-5.0494-0.45176-7.5861-0.46257z" fill="#fdaf12"/>
  <g transform="matrix(2.9604 0 0 2.9604 2192.2 532.21)">
   <path d="m-615.15 11.402c-1.2112-0.33214-2.423 0.03927-3.6356 0.24174-2.3596 0.47741-4.6593 1.1816-6.9817 1.806-2.4689 0.69286-4.6027 2.0527-6.7623 3.3933-1.665 1.2199-2.8951 2.7506-4.038 4.4238-1.3265 2.1787-2.0556 4.6393-2.726 7.0813-0.9053 3.0531-1.3448 6.2188-1.8636 9.3554-0.44494 3.2294-0.99877 6.4363-1.5194 9.6502-0.32246 2.7862-0.91972 5.5181-1.6323 8.2269-0.59828 2.1154-1.3156 4.1964-1.916 6.3151-0.53114 1.1306-1.0127 2.2966-1.5126 3.4101-0.21866 0.69339-0.56635 1.3438-0.84717 1.9858 0.69371-1.7075-0.24825-2.3536-2.0162-2.8712-0.0893 0.22072 0.91682-0.45852 1.1887-0.59449 1.4586-1.324 2.8923-2.67 4.2127-4.1295 1.8806-2.1191 4.0495-3.961 6.2466-5.739 2.0225-1.6336 4.1773-3.1118 6.2958-4.6102 2.3772-1.5727 4.7314-3.1805 6.9166-5.0181 2.8751-2.519 5.1978-5.489 7.4864-8.5222 1.9215-2.9716 3.3776-6.172 4.6805-9.45 1.1256-2.7144 2.1125-5.48 3.0898-8.2502 1.2352-1.2173 0.96922-2.4911 1.2859-3.8056 0.18046-0.74911 0.78026-0.88891 1.0752-0.17706 0.61118 1.475 1.0832 3.0342 1.7175 4.5593 0.10412 3.4958-0.90718 6.6961-2.4671 9.8114-1.741 3.3986-3.4282 6.8615-5.6712 9.9633-2.3 3.385-5.0219 6.5017-7.8828 9.4235-2.1952 2.2523-4.3694 4.5433-7.0702 6.2016-2.0866 1.3026-4.2016 2.5733-6.1881 4.0368-2.0345 1.6796-3.994 3.404-5.8004 5.325-1.7702 1.517-3.4384 3.1997-5.6082 4.1857-0.97209 0.55158-1.9465 1.2089-3.0518 1.4208-2.4702-0.61481-3.0109-1.5811-2.2005-3.7602 0.2983-0.5104 0.62457-1.092 0.95168-1.6283 0.42959-1.0848 0.94549-2.1832 1.2901-3.3263 0.96453-1.8425 1.7653-3.7329 2.3993-5.716 0.73855-2.5955 1.4706-5.1885 1.998-7.8366 0.63674-3.1736 1.1623-6.3663 1.6958-9.5606 0.55137-3.2259 1.2291-6.423 1.8615-9.6324 0.78052-2.7192 1.4661-5.4592 2.7764-7.9874 1.3214-2.1699 2.5977-4.3162 4.8634-5.634 2.327-1.5803 4.7413-2.9617 7.2621-4.2149 2.3182-1.1646 4.6773-2.2102 7.1536-3.0052 1.5344-0.51682 3.0831-0.97942 4.6351-1.4326 4.1355-1.2077 4.4635 7.2243 0.30864 6.085z"/>
   <path d="m-607.44 8.4379c0.97963 0.03925 1.957 0.39908 2.904 0.69651 1.8059 0.46747 3.619 0.83847 5.4621 1.1313 2.2216 0.5962 4.53 0.69568 6.8065 0.77935 2.0484 0.06748 4.0409-0.14723 6.0463-0.49536 2.3624-0.40702 4.4955-1.495 6.6464-2.5005 2.0403-1.073 3.8102-2.46 5.5259-3.9759 0.97545-0.79849 1.489-1.9331 2.0836-2.9248 0.41666-0.42273 0.18331-0.97369 0.26711-1.4188-9e-3 -0.19144-0.0768-0.31559-0.12249-0.50325-0.0716-0.14028 0.10662 0.29636 0.15994 0.44455 0.19986 0.11787 0.44689 0.12506 0.67034 0.18759-1.4112-0.06549-2.849 0.33835-4.2334 0.63878-2.4894 0.68904-5.0056 1.2671-7.504 1.9324-2.4465 0.57865-4.8912 1.1517-7.348 1.6813-2.5395 0.93599-5.0393 1.2442-7.5689 1.0602-2.6667 0.62626-5.3854 0.95274-8.1009 1.2751-0.76516 0.09083-0.88649-0.99217-0.12132-1.0829 2.6739-0.31716 5.351-0.63765 7.9769-1.2539 2.1369-1.2719 4.5385-2.1915 7.1678-2.6209 2.4415-0.62037 4.9099-1.0918 7.3774-1.617 2.4673-0.57329 4.8814-1.272 7.2298-2.229 1.5424-0.59144 3.0932-1.1598 4.6533-1.6838 1.2271-0.17886 2.002-0.4494 3.0673 0.43589 0.3121 0.58102 0.93454 1.0736 0.90883 1.7921 0.0549 0.61708 0.25792 1.221 0.16616 1.8684-0.2304 1.0152-0.43425 2.0363-0.88598 2.9845-1.0683 1.4011-2.0244 2.8668-3.6098 3.766-2.0401 1.4362-4.133 2.8186-6.4075 3.8617-2.3676 1.2722-4.7493 2.5557-7.3562 3.2712-2.2768 0.29293-4.5417 0.43339-6.8342 0.13409-2.4026-0.18415-4.8247-0.38933-7.2341-0.65556-1.8602-0.42085-3.7205-0.82008-5.6007-1.1461-1.1444-0.24461-2.3091-0.37847-3.2748-1.0926-1.6752-1.239-0.99945-2.824 1.0825-2.7406z"/>
   <path d="m-562.88-3.137c2.2382 0.2518 4.1443-0.33319 6.4299-0.27454 3.8574 0.45593 7.7051 0.92924 11.551 1.4529 4.5386 0.95261 8.7994 2.7952 13.18 4.2621 3.8965 1.7234 7.8733 3.2538 11.728 5.0695 2.5255 0.89384 4.7981 2.3131 7.1765 3.5193 1.4395 0.44991 2.5366 1.4419 3.6695 2.3857 1.5548 1.4723 2.0049 2.7808 1.7491 4.9682-1.232 2.4471-2.3698 2.0959-4.8438 1.3025-0.73372-0.23532-0.45909-0.12209-0.66228-0.86535-0.12175-0.44533-0.77846-3.9267-1.5266-2.0724 0.0294 0.27616 0.4588 2.988 0.25687 1.6035-0.69771-0.70536-1.351-1.4904-2.0941-2.1657-1.8813-1.6114-3.868-3.0712-5.8542-4.5547-3.604-2.04-7.2376-4.0104-11.128-5.4733-3.9502-1.956-8.1152-3.4259-12.394-4.487-3.5954-1.0702-7.1917-1.506-10.957-1.2986-2.1739-0.07869-4.009-0.83837-6.1175-0.34419-2.0876 0.48928-2.2951-3.2676-0.16435-3.0278z"/>
   <path d="m-605.83-1.4701c0.50066-0.8772 1.2337-1.6057 1.7935-2.4757 0.66753-0.93216 1.088-1.9883 1.5125-3.0424 0.33646-1.0076 0.56283-2.041 0.82361-3.0728 0.2428-1.0836 0.12803-2.1636 0.0151-3.2533-0.29338-1.478-0.86973-2.8732-1.3676-4.2902-0.85412-1.8023-1.5831-3.6462-2.5889-5.3747-0.91839-1.9307-2.3409-3.5595-3.6973-5.1945-1.418-1.7059-3.2397-2.9869-4.8528-4.4813-1.5018-1.2816-3.0421-2.5122-4.6455-3.6629-1.0244-0.78377-2.1516-1.415-3.227-2.1182-0.60515-0.27129-1.1268-0.66331-1.6954-0.99758-0.28828-0.06909-0.56935-0.12816-0.85549-0.19258-0.15832-0.75725-0.36167-0.41713-0.90933-0.56112-0.53264 0.35799-0.93176 0.85585-1.3017 1.3733-0.54238 0.93912-0.94394 1.9447-1.3417 2.9467-0.51184 1.252-0.68127 2.6025-0.84137 3.9373-0.11645 1.606-0.17559 3.2363-0.13148 4.8484 0.10285 2.0066 0.42523 4.0017 0.80697 5.974 0.49256 2.1304 1.1884 4.2007 1.8398 6.2853 0.84339 2.0278 1.6916 4.0378 2.7232 5.9793 1.0982 1.7464 2.0171 3.5885 3.2765 5.2304 1.362 1.7836 2.9397 3.4685 4.6918 4.874 1.2532 0.93396 2.1426 2.1497 3.501 2.9291 0.33418 0.19173 0.0628 0.66445-0.27129 0.4725-1.3827-0.79448-2.9814-1.1542-4.1635-2.2853-1.8069-1.5725-3.6873-3.0588-5.1659-4.9698-1.2139-1.7657-2.3996-3.5736-3.2338-5.5557-0.98868-2.0247-1.9961-4.0695-2.6519-6.2284-0.78962-2.0979-1.3138-4.2837-1.7054-6.4889-0.45889-2.0432-0.88288-4.0816-0.96102-6.1824-0.0417-1.6903-0.0663-3.3576 0.20006-5.0364 0.22461-1.4239 0.42798-2.8367 0.86153-4.2196 0.38399-1.0918 0.76993-2.1869 1.3454-3.1971 0.39286-0.81647 0.68958-1.6369 1.4444-2.2268 0.65538-0.63636 1.2994-1.249 2.0588-1.7538 0.81212 0.01621 1.5895 0.0015 2.3315 0.40462 0.87629 0.32793 1.6828 0.69927 2.3727 1.3497 1.1322 0.80801 2.1868 1.7078 3.2442 2.6135 1.5198 1.3503 3.0252 2.7137 4.5025 4.1108 1.7612 1.5204 3.3305 3.2624 4.9206 4.9616 1.5542 1.7404 2.9006 3.6284 4.2097 5.5552 1.0033 1.8417 2.0567 3.6783 2.8042 5.6408 0.79181 1.5697 1.4825 3.1982 1.8839 4.9148 0.27054 1.5264 0.44131 3.0264 0.0826 4.5679-0.25201 1.3333-0.55215 2.6286-1.2314 3.8236-0.65797 1.162-1.3639 2.3021-2.2321 3.3319-0.66891 0.78197-1.2092 1.7256-1.9574 2.3876-1.4638 1.2952-3.1857 0.04644-2.2169-1.6511z"/>
   <path d="m-586.99-1.8598c0.81504-0.04054 1.6038-0.33527 2.397-0.61376 2.1546-0.96716 3.7007-2.8258 5.163-4.6139 2.224-3.0463 3.7557-6.4881 5.1469-9.9729 1.387-3.5758 2.4434-7.2646 3.425-10.968 0.78123-3.0207 1.3279-6.0906 1.8126-9.17 0.37846-2.4175 0.55868-4.8646 0.49582-7.3105 3.8e-4 -1.8325-0.30704-3.6272-0.60894-5.4258-0.29257-1.3722-0.70562-2.7172-1.1371-4.0468-0.16571-0.80239-0.61166-1.4251-1.0803-2.0629-0.13941-0.23479-0.36417-0.40697-0.54625-0.61046 0.79433-0.5342-1.0043 0.17957-1.2348 0.28926-1.6722 1.1663-2.9884 2.7066-4.2172 4.3185-1.8715 2.6558-3.2574 5.585-4.667 8.4991-1.8052 3.6796-3.3903 7.457-4.8396 11.289-1.5417 4.1658-2.8423 8.4166-3.9493 12.717-0.99927 4.0898-1.7715 8.2373-2.1781 12.429-0.34643 1.7121-0.25932 3.4416-0.17171 5.17 0.0195 0.38477-0.52482 0.41224-0.54416 0.02746-0.0884-1.7599-0.12607-3.5188-0.1396-5.2811 0.41863-4.2435 1.1491-8.4333 2.4324-12.511 1.2641-4.2737 2.453-8.574 4.0409-12.744 1.4555-3.8479 2.9603-7.6819 4.8405-11.346 1.4582-2.9239 2.8537-5.8789 4.3291-8.7919 1.0395-1.9364 2.1881-3.8047 3.7422-5.3751 1.1125-1.237 2.1824-2.5273 4.0173-2.2209 0.99193 0.50369 1.7649 1.0332 2.4061 1.9844 0.52323 1.0397 0.97519 2.0985 1.2522 3.2381 0.31598 1.4961 0.61872 2.9959 0.84331 4.5097 0.27066 1.9803 0.43629 3.9762 0.34023 5.9779-0.11831 2.6035-0.32972 5.2022-0.87734 7.7569-0.67803 3.1096-1.5826 6.1622-2.5049 9.207-1.0899 3.7418-2.2315 7.4602-3.632 11.101-1.4126 3.6386-2.9288 7.2578-4.896 10.636-1.4289 2.4326-3.0321 4.6844-5.3845 6.3139-1.0237 0.65695-2.1043 1.418-3.2843 1.6294-2.857 0.51201-3.6902-3.8837-0.79125-4.0278z"/>
   <path d="m-575.69-3.7707c1.041-0.45493 2.0143-1.178 2.9349-1.8606 2.1896-1.7526 4.1375-3.7823 6.0449-5.8316 2.0213-2.2802 3.8304-4.7293 5.5173-7.2633 1.5105-2.4026 3.0069-4.8039 4.4126-7.2694 1.3011-2.1842 2.5508-4.3652 3.3451-6.802l0.33631-1.1516c0.108-0.36982 0.63107-0.217 0.52298 0.1528l-0.3413 1.1677c-0.80108 2.455-1.4737 4.9929-2.6394 7.2934-1.3091 2.5638-2.7582 5.0883-4.4635 7.4097-1.7785 2.5424-3.4997 5.1358-5.5432 7.478-1.8396 2.1827-3.8389 4.2214-5.6899 6.3936-0.88187 1.0622-1.7161 2.1718-2.7266 3.1185-1.7085 1.6006-3.8554-1.8976-1.7102-2.835z"/>
   <path d="m-550.02-52.464c-0.12289-0.50965 0.15104-1.2753 0.29919-1.8682 0.22566-0.96714 0.24183-1.9467 0.19029-2.931 0.0623-0.8072-0.0802-1.606-0.17044-2.4028 0.0371-0.26738-0.21018-0.74349-0.23856-0.84388 0.70391 0.4379 7e-3 -0.03764-0.0661 0.34274-1.4286 1.0959-2.3903 2.6524-3.3069 4.1743-1.7272 2.8228-3.5721 5.5707-5.4116 8.3208-2.0384 3.0009-4.1152 5.975-6.1193 8.9991-2.0024 3.0075-3.8903 6.0882-5.6456 9.2459-0.18718 0.33674-0.66342 0.07199-0.47621-0.26473 1.7624-3.1699 3.6572-6.263 5.6676-9.2822 2.0046-3.0248 4.0816-5.9996 6.1206-9.001 1.8347-2.743 3.6748-5.4837 5.3977-8.299 0.98452-1.6346 1.7501-3.3907 2.8252-4.9678 0.84451-0.87888 1.4795-1.2845 2.5639-0.48052 0.33314 0.6181 0.66801 1.1456 0.58914 1.9254-7e-3 0.86739-0.0481 1.7329-0.0477 2.6008-0.15254 1.0286-0.26308 2.0548-0.34027 3.0912-0.0365 0.66978 0.0197 1.5145-0.30537 2.0256-0.59711 0.93871-1.2648 0.69691-1.5256-0.38461z"/>
   <path d="m-561.89-11.759c0.64625-1.4401 1.8302-2.4368 2.8801-3.5687 2.4501-2.5999 4.252-5.698 6.4337-8.5127 2.8238-3.3884 5.5058-6.8847 8.0646-10.476 2.7092-3.9777 5.5865-7.9053 7.6702-12.255 1.6651-3.4402 2.8442-7.0585 3.8356-10.738 0.89894-2.9296 1.5525-5.9253 2.2478-8.9079 0.3904-2.2271 0.69687-4.4606 0.79831-6.7191 0.1983-1.1968-0.15858-2.3102-0.45436-3.4101-0.16019-0.37982-0.52228-0.50489-0.81575-0.73436-0.0382-0.12927-0.53128 0.11341-0.76238 0.16274-2.5712 0.85569-4.445 2.3287-6.1604 4.3874-1.6028 2.1269-0.80561 1.0164-2.383 3.3376-0.21655 0.31866-0.66724 0.01228-0.45061-0.3063 1.5981-2.3501 0.7902-1.2255 2.415-3.3801 1.8137-2.1758 3.1254-4.6738 5.0396-6.7354 1.5133-1.099 2.9902-1.4624 4.659-0.46812 0.86728 0.84743 1.5968 1.7106 1.8103 2.9578 0.087 1.5508 9e-3 3.018-0.38062 4.5364-0.51821 2.2677-1.1082 4.5151-1.7977 6.7402-0.75655 2.9962-1.6354 5.9602-2.3929 8.9556-1.2351 3.6652-2.7194 7.251-4.5714 10.651-2.3593 4.2503-4.4209 8.6717-7.1553 12.713-2.4331 3.7144-5.0693 7.2761-7.7632 10.804-2.1539 2.8352-4.5514 5.4936-6.3843 8.5603-0.84983 1.3226-1.5646 2.709-2.8546 3.6689-1.1245 0.83677-2.1017 0.0159-1.5278-1.2629z"/>
   <path d="m-616.26 6.5831c-1.2531-0.40625-2.5042-0.79685-3.7748-1.1536-3.3946-1.0053-6.7007-2.2565-9.9877-3.5705-4.6718-1.4824-9.0229-3.6469-13.111-6.3266-4.3246-2.9785-7.8488-6.8663-11.163-10.895-2.7185-3.3303-5.0896-6.9149-7.3828-10.544-1.2665-2.1323-2.1148-4.4586-3.0658-6.7368-0.48181-1.0049-0.89662-2.0409-1.3445-3.0619-0.24953-0.47597-0.49864-0.93201-0.76904-1.3966-0.30419-1.5392 0.60488-2.0077 1.9931-1.9662 1.3279 0.5252 2.5617 1.2521 3.9141 1.7122 2.5027 1.1331 5.1465 1.9262 7.7545 2.7782 3.687 1.5534 7.1766 3.5479 10.491 5.7824 3.3795 2.0141 6.4858 4.3865 9.4159 7.0006 1.4449 1.59 2.6906 3.3192 4.1075 4.9419 0.2534 0.29021-0.15709 0.64858-0.41044 0.35833-1.4061-1.6109-2.955-2.9362-4.6694-4.2123-2.8673-2.5676-5.8902-4.9658-8.9996-7.2328-3.3155-2.0755-6.5792-4.2966-10.312-5.5727-2.575-0.98565-5.2604-1.5921-7.9516-2.1781-1.2137-0.42412-2.4826-0.76489-3.7687-0.84968 0.36954-0.26795 1.3095-0.52636 1.0144-1.4082 0.12885 0.38729 0.23516 0.95871 0.42485 1.3842 0.3291 1.1191 0.61641 2.258 0.70693 3.4279 0.47456 2.3479 1.3146 4.5933 2.3119 6.7711 1.7879 3.8803 4.2773 7.3437 6.9608 10.657 3.2786 3.9867 6.7633 7.8362 11.041 10.786 4.04 2.6506 8.3434 4.8348 12.994 6.2134 3.3646 0.81179 6.7728 1.6112 10.235 1.8289 1.1218 0.10462 2.2959 0.32438 3.4042 0.09554 2.333-0.48171 2.2082 4.1031-0.0579 3.3684z"/>
   <path d="m-619.33 6.3971c-0.87076 0.40083-1.8409 0.52964-2.7952 0.64359-2.344 0.21575-4.6889 0.41664-7.0453 0.43637-3.883 0.00408-7.7663-0.07577-11.65-0.05778-4.9233 0.0679-9.8189-0.29877-14.728-0.60344-5.4606-0.39159-10.865-1.1758-16.218-2.314-5.3658-1.1311-10.575-2.8038-15.76-4.5588-4.2905-1.417-8.4297-3.2156-12.51-5.1424-2.6328-1.3558-5.3364-2.6069-7.9009-4.0951-1.4585-0.75134-2.7998-1.7276-4.1183-2.6993-0.96779-0.7217-1.6603-1.6206-2.2468-2.6517-0.44739-0.81466-0.63543-1.7097-0.84159-2.5996-0.16115-0.59932-0.15895-1.1976-0.13881-1.8088 0.0374-0.98031 0.54984-1.5438 1.1569-2.241 1.006-0.51477 2.0247-0.36317 3.0955-0.29391 1.5796-0.07355 3.1611 0.03345 4.7426 0.03452 2.4986 0.17366 4.9956 0.30134 7.4844 0.59305 2.9278 0.33869 5.8479 0.73425 8.7752 1.0799 3.0552 0.30318 6.0041 1.1642 8.9449 2.0009 3.1009 0.95422 6.2002 1.9173 9.3184 2.8147 3.0301 0.8588 5.8088 2.3084 8.7312 3.4479 0.35894 0.13995 0.16097 0.64762-0.19796 0.50762-2.9256-1.1411-5.9616-1.5516-8.9829-2.3976-3.1161-0.90219-6.2286-1.7967-9.3415-2.708-2.8674-0.81305-5.7754-1.4383-8.7185-1.9143-2.8847-0.47274-5.7854-0.73849-8.7013-0.93534-2.4134-0.15527-4.8273-0.38146-7.2436-0.14131-1.5221 0.09223-3.01 0.37216-4.5114 0.61972-0.12977 0.03893-1.8026 0.57139-0.91931 0.41049 0.093-0.15243 0.49561-0.60269 0.42769-0.68719 0.0102 0.08548 0.13213 0.6267 0.10603 0.88819 0.0864 0.44778 0.13154 0.89854 0.3889 1.2879 0.3796 0.51804 0.73241 1.0447 1.2551 1.4357 1.1771 0.94914 2.3987 1.8486 3.5955 2.7772 2.3308 1.6876 4.6235 3.4138 7.131 4.8388 3.7941 2.2433 7.6916 4.3329 11.79 5.9699 5.0533 1.8749 10.25 3.3822 15.528 4.4824 5.2847 0.99732 10.629 1.7419 16 2.0565 4.8453 0.29998 9.7062 0.22719 14.554-3.8e-4 3.8429-0.14517 7.6853-0.39316 11.51-0.77923 2.2891-0.2478 4.5821-0.40562 6.8692-0.66245 0.9379-0.07376 1.9041-0.17743 2.7999 0.13224 1.9098 0.66018 2.201 1.9893 0.36538 2.8343z"/>
   <path d="m-607.4-33.149c0.37789-1.0579 1.0637-1.9497 1.799-2.7882 1.2791-1.8734 2.5635-3.7476 3.9035-5.579 1.3315-1.9469 2.7203-3.8448 4.2841-5.6118 1.2517-1.4394 2.7617-2.3921 4.5953-2.8675 1.9377-0.34104 3.5728 0.51422 5.0455 1.6808 1.8459 1.1456 2.5754 3.0552 3.7074 4.7584l0.46251 0.78983c0.19468 0.33246-0.27595 0.60774-0.47031 0.27509l-0.44611-0.76355c-1.0269-1.5482-2.7214-2.6172-4.0758-3.8756-1.2323-0.72785-2.4636-1.4031-3.9353-1.3556-1.5831 0.31047-2.9686 0.87572-4.1338 2.073-1.659 1.6078-3.1192 3.405-4.4087 5.3224-1.1986 1.895-2.419 3.7751-3.4472 5.771-0.26947 0.85249-0.64513 1.6743-0.74805 2.5582-0.17722 1.522-2.6474 1.0553-2.132-0.3876z"/>
   <path d="m-602.51924-41.01516c-.22982-.35639-.64666-.631-.98098-.91906-.53453-.59959-1.22026-1.02235-1.86502-1.48523-.6878-.39454-1.45329-.59127-2.21528-.78389-.86146-.16395-1.72964-.16688-2.60004-.18613-.82474.01964-1.60586.25994-2.39003.483-.71647.25466-1.27911.76375-1.87405,1.21454-.64854.58413-1.16097,1.29011-1.64969,2.00555-.46252.66391-.76778,1.40912-1.12195,2.13575l-.16632.33632c-.17077.34535-.59385.19971-.51515-.17743l.0776-.37194c.20781-.85129.41429-1.72279.87125-2.47944 .52685-.79022 1.0567-1.58362 1.72629-2.27029 .68435-.65776 1.3351-1.29471 2.28527-1.55436 .89107-.266 1.79518-.42409 2.72751-.47709 .96098-.018 1.91946.02536 2.8584.2537 .90542.19665 1.78936.40147 2.56345.94498 .70879.46988 1.41999.93053 2.09771,1.441 .42471.36801.84541.7187 1.19016,1.16066 .54506.69874-.53888,1.47414-1.01915.72938z"/>
   <path d="m-635.53-24.542c0.0366-0.58111-0.14084-1.1565-0.25343-1.7236-0.38436-1.4683-0.70603-2.952-1.0597-4.4346-0.37519-2.0664-0.93137-4.095-1.343-6.157-0.29666-2.0619-0.55051-4.118-0.63073-6.2032-0.0795-1.8901 0.33834-3.7399 0.65263-5.5897 0.2292-1.3244 0.42739-2.6517 0.74395-3.9551 0.18862-1.0281 0.75412-1.5814 1.5764-2.1194 1.2563-0.46551 2.0597 0.0695 2.9991 0.87481 1.2341 1.3375 2.4792 2.6725 3.7242 4.0047 1.4712 1.5151 2.6798 3.2429 3.8371 5.0009 0.21185 0.32179-0.24327 0.62139-0.4551 0.29958-1.1403-1.7323-2.3299-3.4359-3.7801-4.9284-1.2069-1.2915-2.4029-2.6143-3.8852-3.5983-0.61781-0.24969-1.1307-0.62403-1.8258-0.49629-0.45551 0.40321-0.93198 0.67969-1.1531 1.3123-0.46771 1.2194-0.92794 2.436-1.195 3.7203-0.3984 1.7899-0.54236 3.6251-0.5414 5.4566 0.0273 2.0343 0.16626 4.0997 0.67098 6.0742 0.40498 2.0305 0.80038 4.0946 1.5687 6.021 0.50177 1.4218 1.1335 2.7538 1.8562 4.0698 0.32557 0.61635 0.63027 1.239 0.90609 1.8792 0.68898 1.5992-2.5224 2.2304-2.4129 0.49255z"/>
   <path d="m-653.82-35.183c-0.28725-0.61053-0.38124-1.2994-0.52875-1.9539-0.3296-1.4014-0.63847-2.7995-0.86337-4.2238-0.32762-2.0825-0.68279-4.1626-1.1527-6.2182-0.33879-1.809-0.8247-3.5917-1.0881-5.4133-0.26396-1.4325-0.49905-2.869-0.71083-4.31-0.1537-0.80138-0.29119-1.5923-0.38266-2.4016 0.0365-1.1643 0.55497-1.4254 1.5563-1.778 0.85857 0.28381 1.419 0.99565 2.0228 1.6335 1.0123 1.0575 1.9025 2.2195 2.8216 3.3564 1.2768 1.4091 2.3843 2.9338 3.4692 4.494 1.1871 1.7241 2.31 3.4889 3.4486 5.2442 1.1024 1.5623 2.0182 3.225 2.9427 4.8929 0.65111 1.6331 1.3854 3.2251 1.975 4.8846 0.55035 1.4747 0.97381 2.9899 1.4343 4.4934 0.19634 1.1794 0.37344 2.3585 0.60405 3.5312 0.0743 0.37803-0.40323 0.5056-0.52641 0.14055-0.3801-1.1265-0.79879-2.2315-1.2655-3.3275-0.42177-1.4976-0.893-2.9805-1.3322-4.4736-0.53524-1.6167-0.9671-3.2885-1.8621-4.7545-0.78562-1.699-1.7395-3.3222-2.6921-4.9319-1.0833-1.7696-2.2181-3.5092-3.4497-5.18-1.1126-1.5004-2.2163-3.0042-3.4358-4.4164-0.95479-1.0305-1.9374-2.0348-3.0964-2.8391-0.17507-0.11554-1.1908-0.912-1.0394-0.52847l0.70619-0.44561c-0.0362 0.72896-0.11713 1.4645-0.0426 2.1966 0.11604 1.4274 0.20782 2.8524 0.39037 4.2742 0.31336 1.7928 0.50073 3.6092 0.89352 5.3899 0.35205 2.0478 0.74108 4.1038 1.3943 6.0791 0.47988 1.3124 0.95066 2.6309 1.5109 3.9094 0.26196 0.62051 0.56685 1.2329 0.7316 1.8894 0.44002 1.7535-1.6631 2.4222-2.4328 0.7863z"/>
   <path d="m-654.21-34.949c-0.50722-0.68663-0.83558-1.5087-1.2105-2.2832-0.76413-1.7239-1.6672-3.3734-2.44-5.0968-0.97473-1.9416-2.1344-3.7827-3.023-5.7663-0.96543-2.0796-1.7221-4.2419-2.3852-6.4336-0.58623-2.0071-1.3618-3.9402-2.0239-5.9203-0.69076-1.6173-1.061-3.3416-1.5059-5.0351-0.29725-1.4844-0.46008-2.9869-0.69725-4.4812-0.0974-1.0932-0.40695-2.124-0.47698-3.2164-0.11014-0.88538-0.18924-1.7668-0.26028-2.6569-0.0981-0.56942-0.0911-1.1498-0.13103-1.7199-0.0127-0.81164 0.32395-1.5616 0.56934-2.3097l0.46926-1.5446c0.14327-0.69822 0.65294-1.0312 1.1395-1.4803 0.81498-0.52017 1.6806-0.41631 2.5924-0.2832 1.2058 0.50854 2.2085 1.3427 3.2268 2.148 1.4921 1.1477 2.8661 2.4377 4.2996 3.6554 1.6559 1.6377 3.2476 3.3482 4.797 5.0887 1.6382 1.7763 3.0541 3.743 4.5074 5.6744 1.3128 1.8432 2.2617 3.8917 3.0615 5.998 0.49368 1.0211 0.92757 2.0685 1.3573 3.1174 0.14604 0.35651-0.3582 0.56304-0.5042 0.20651-0.42563-1.0394-0.8555-2.0772-1.3447-3.0889-1.114-1.9023-2.1486-3.8406-3.341-5.6967-1.2938-2.0208-2.8404-3.7604-4.5522-5.4387-1.6272-1.6176-3.1463-3.3398-4.8949-4.8326-1.3222-1.2304-2.7804-2.2983-4.3384-3.2138-0.94187-0.43569-1.877-0.9237-2.9213-1.0593-0.1891-0.06784-0.30736-0.19364-0.4529-0.16249-0.0612 0.08154-0.15968 0.16183-0.20762 0.27636-0.1982 0.46607-0.4121 0.92325-0.58936 1.4166-0.14648 0.47482-0.31413 0.91719-0.27577 1.4362 2e-3 0.58254 0.0667 1.1778-0.0275 1.762-0.0141 0.85162-0.0502 1.6968-9e-3 2.5475 0.0961 1.0763-0.0504 2.1327 0.0476 3.2119 0.0575 1.4541 0.19891 2.9046 0.48315 4.3331 0.3277 1.6759 0.70205 3.3364 1.1254 4.9931 0.57141 2.0059 1.0282 4.0374 1.6616 6.027 0.70596 2.1365 1.2859 4.3278 2.2828 6.3557 0.9817 1.9253 1.8859 3.8856 2.983 5.7505 0.98278 1.5754 1.8478 3.2269 3.0147 4.6747 0.539 0.64564 1.1157 1.2732 1.6097 1.9363 0.8283 1.1119-0.79191 2.2261-1.6157 1.1109z"/>
   <path d="m-640.75-47.968c-0.41527-0.94024-0.62756-1.9495-0.88233-2.936-0.54819-1.7971-1.1033-3.5962-1.7864-5.3475-0.83866-2.0851-1.3545-4.2686-1.788-6.4672-0.38875-2.2177-0.78825-4.4334-1.1881-6.649-0.3304-1.6773-0.54901-3.3714-0.74707-5.0671-0.10668-1.3911-0.21977-2.7821-0.2846-4.1763-0.10508-1.0158-0.13621-2.045-0.1313-3.0651-0.0481-0.77217 0.19486-1.5015 0.35687-2.2443 0.37088-0.90913 0.79192-1.2055 1.7126-1.4054 1.2543 0.20249 2.319 0.91212 3.3646 1.5961 1.5718 1.2327 3.1945 2.3953 4.7418 3.6595 1.6969 1.3898 3.0972 3.0756 4.4259 4.8079 0.86548 1.1025 1.7 2.2152 2.4728 3.3835 0.21256 0.32133-0.20658 0.62146-0.44296 0.31724-0.85413-1.0992-1.6611-2.2296-2.4622-3.3692-1.3028-1.6992-2.6744-3.3541-4.3383-4.7176-1.5148-1.2381-3.0469-2.5088-4.8205-3.3604-0.91639-0.43349-1.7671-1.0409-2.8123-0.99778-0.18202 0.1434-0.72418-0.04936-0.60906 0.47984-0.21266 0.63191-0.4076 1.253-0.45896 1.9245-0.10522 0.99242-0.14853 1.9931-0.23822 2.9891-0.043 1.3792-0.0975 2.7504 0.0923 4.1233 0.16843 1.6853 0.38485 3.3628 0.71485 5.0256 0.39932 2.2128 0.7984 4.4256 1.1865 6.6405 0.42588 2.1623 0.91461 4.323 1.7821 6.3583 0.73295 1.7425 1.6268 3.4114 2.3404 5.1632 0.41256 0.85378 0.83894 1.7131 1.2175 2.5824 0.45307 1.0405-0.95928 1.7903-1.4178 0.7522z"/>
   <path d="m-639.64726-48.65632c.1521-.80998.14498-1.64354.15905-2.46694 .059-1.35105-.0272-2.70773-.0829-4.06076-.0666-1.40027-.0553-2.80177-.0371-4.20286 .0389-1.01901-.0903-2.0154-.24157-3.016-.0809-.83109-.11647-1.6581-.18427-2.47573-.14777-.71362-.00038-1.39641.12707-2.09379 .0515-.59689.46502-.95079.78442-1.4005 .52034-.65068 1.07132-.54173 1.79015-.60609 1.14702.18813 2.06408.82699 2.96836,1.51138 1.16367.95912 2.15043,2.07861 3.00718,3.31423 .98982,1.54148 1.81284,3.18113 2.65645,4.80493 .81486,1.62478 1.58777,3.27047 2.35379,4.91876 .6821,1.35857 1.18135,2.77744 1.68111,4.2048l.18126.56726c.11727.36699-.40178.53281-.519.16581l-.17864-.55927c-.49211-1.40646-1.04935-2.7875-1.65883-4.14898-.76263-1.64103-1.53214-3.27946-2.34319-4.89719-.83304-1.60347-1.64554-3.22263-2.62096-4.74604-.81133-1.1744-1.72078-2.30055-2.92378-3.09287-.84424-.44114-1.66015-.98328-2.65329-1.03628-.33409.09783-.69111.0055-.93112.31998-.21718.30002-.48429.5557-.63597.89813-.0616.60968-.13876,1.21918-.15093,1.83463 .0272.8093.0847,1.63078.14096,2.45497-.0204,1.02821-.0532,2.05798-.10442,3.0866-.0181,1.39116-.0294,2.78273.0367,4.17307 .0555,1.34783.0858,2.70439.31936,4.03343 .11119.79213.18643,1.61146.49491,2.353 .39219.94277-1.62334,1.16587-1.43489.16232z"/>
   <path d="m-631.63-63.709c0.12258-0.70192 0.16822-1.4207 0.21685-2.1317 3e-3 -1.136 0.25936-2.2323 0.52898-3.328 0.23621-1.2388 0.6658-2.4292 1.1313-3.5974 0.50937-1.1111 1.324-1.8757 2.2604-2.6137 0.80734-0.62922 1.7373-1.0404 2.6361-1.5144 0.98443-0.52716 1.9584-0.55143 3.0212-0.48446 1.4078 0.4344 2.4023 1.4504 3.4475 2.4207 1.3696 1.2876 2.0189 3.0709 2.6645 4.7912 0.13537 0.3607-0.37533 0.55199-0.51023 0.19112-0.61732-1.6514-1.4972-3.0746-2.7768-4.3082-0.93174-0.74836-1.863-1.5183-3.0607-1.7782-0.82086-0.05687-1.4944-0.12777-2.2524 0.33633-0.8595 0.36335-1.6783 0.80221-2.4613 1.3151-0.74835 0.60731-1.4564 1.2456-1.8531 2.1526-0.47562 1.0801-0.92027 2.1565-1.1207 3.3297-0.14269 1.0302-0.3038 2.0668-0.2889 3.111 0.0308 0.64879 0.0229 1.3297 0.24313 1.9444 0.43727 1.2202-2.0487 1.4408-1.8257 0.16392z"/>
   <path d="m-616.96-59.435c0.11749-0.61668 0.15071-1.232 0.2474-1.853 0.10182-1.2717 0.26375-2.5202 0.46939-3.7812 0.29906-1.4381 0.6661-2.8562 1.022-4.2806 0.22269-1.2306 0.60575-2.4211 1.0338-3.591 0.31066-0.93842 0.75584-1.7987 1.288-2.6256 0.43066-0.71919 1.0857-1.2274 1.7116-1.7482 0.65029-0.63572 1.3491-0.82473 2.2183-0.94234 1.1696-0.03383 2.1548 0.41262 3.1655 0.89658 1.221 0.94759 2.2181 2.1245 3.0642 3.4143 1.1183 1.5538 1.7767 3.3518 2.6097 5.0572 0.99611 1.7149 1.6617 3.5937 2.3242 5.4554 0.54005 1.7248 0.79406 3.5085 1.3253 5.2347 0.11331 0.36823-0.40744 0.52848-0.52075 0.16025-0.52682-1.712-1.3256-3.2957-2.0234-4.9424-0.69986-1.8078-1.5035-3.5616-2.2832-5.3345-0.79471-1.6372-1.7102-3.2216-2.6623-4.7711-0.78499-1.084-1.5768-2.1707-2.6992-2.9276-0.68251-0.49711-1.3246-1.0089-2.2036-1.0185-0.56366 0.13953-1.1635 0.18899-1.6616 0.55806-0.53549 0.47484-1.0939 0.91266-1.5471 1.4812-0.48976 0.7583-1.0268 1.4997-1.3552 2.3518-0.447 1.1339-0.8992 2.2582-1.2333 3.4328-0.37376 1.3973-0.77913 2.7994-0.94811 4.2398-0.15141 1.2385-0.3234 2.4787-0.32937 3.7305 0.0393 0.60335 9e-3 1.2085 0.14389 1.8035 0.18098 0.79714-1.309 0.80298-1.156 0z"/>
   <path d="m-603.44-83.432c0.82689-0.92006 1.3169-2.0869 1.9329-3.1554 0.92047-1.5582 1.968-3.035 3.0347-4.4951 0.85922-1.2239 1.8227-2.3648 2.8-3.4942 0.54279-0.78253 1.2509-1.3597 1.9876-1.9371 0.88447-0.50335 1.3558-0.1958 2.1864 0.16362 0.70972 0.66011 1.3901 1.3561 2.0617 2.0444 0.92391 1.3518 1.8387 2.6977 2.5777 4.1638 0.79863 1.5567 1.5977 3.0954 2.1918 4.7463 0.5688 1.4059 1.025 2.8511 1.4529 4.3054 0.36372 0.95491 0.32862 1.988 0.3311 2.9688 1e-3 0.38526-0.35948 0.46114-0.53219 0.11675-0.42311-0.84366-0.88354-1.7316-1.1339-2.6856-0.45359-1.4169-0.88339-2.841-1.3266-4.2601-0.59345-1.582-1.1637-3.1904-1.9465-4.687-0.74399-1.3663-1.4166-2.8085-2.484-3.9578-0.51244-0.69892-0.97452-1.4128-1.7544-1.8438-0.3923-0.12448-0.72552-0.41644-1.1853-0.27817-0.72231 0.42794-1.4404 0.85885-2.0124 1.5062-0.9728 1.111-1.9257 2.2385-2.7738 3.45-1.0552 1.4442-2.0917 2.9048-3.0026 4.4458-0.62173 1.0783-1.2997 2.1489-1.629 3.3562-0.16909 0.61989-1.2054 5e-3 -0.77592-0.47291z"/>
   <path d="m-597.73-60.058c0.32237-0.71161 0.84243-1.3043 1.2714-1.9561 0.92993-1.4294 2.0143-2.7433 3.026-4.1144 1.2224-1.6083 2.6348-3.0523 3.9225-4.6051 1.1043-1.3436 2.3124-2.5896 3.5632-3.7952 0.89929-0.88747 1.8214-1.7469 2.7434-2.6113 0.56918-0.60919 1.2921-1.0201 1.9834-1.4516 1.3109-0.33929 1.7189 0.4363 1.9119 1.5779 0.37405 1.1064 0.52894 2.2497 0.65598 3.4152 0.22167 1.6615 0.30246 3.3364 0.37625 5.0096 0.0454 1.1691 0.11531 2.337 0.17428 3.5055 0.0194 0.38478-0.52474 0.41224-0.54416 0.02746-0.059-1.1696-0.12902-2.3387-0.17444-3.509-0.0727-1.6487-0.13287-3.305-0.39367-4.9368-0.2858-1.0304-0.5183-2.1452-1.0483-3.0618-0.38755 0.06602-0.60046-0.06254-0.12877 0.02193-0.51859 0.28434-1.042 0.56162-1.488 0.98548-0.99304 0.74346-1.9703 1.4975-2.9388 2.2732-1.2523 1.1101-2.5053 2.2197-3.6026 3.4893-1.3258 1.4779-2.4694 3.0997-3.672 4.6777-1.0033 1.2957-1.754 2.7277-2.4287 4.219-0.32061 0.65503-0.55164 1.3491-0.94092 1.9619-0.95949 1.5105-3.0064 0.5071-2.2679-1.1229z"/>
   <path d="m-591.52441-51.17255c.43716-.62184.87334-1.22613 1.38018-1.79381 .48423-.77484 1.17554-1.2973 1.91471-1.80244 .31808-.21738.59771.14308.33781.42748-.54859.60031-1.10341,1.20855-1.64527,1.82314-.32276.59045-.70224,1.16526-.75205,1.84998-.0685.94105-1.77802.26753-1.23538-.50436z"/>
   <path d="m-582.56931-52.00465c-.1643-.39206-.4585-.69386-.69991-1.03711-.63914-.56595-1.40756-.86725-2.16904-1.21727l-.53862.02876c-.38472.02052-.4115-.52688-.0266-.5442l.61081-.0275c1.12154-.0897 2.08586-.05822 3.04034.70654 .50313.41524.98952.79681 1.21562,1.44058 .36862,1.04958-1.00261,1.67618-1.43258.6502z"/>
   <path d="m-579.1009-61.44444c-.66326.6269-.91769,1.60613-1.15713,2.48371-.56424,2.33565-.69489,4.77513-.84244,7.17073-.0797,1.26633-.0373,2.53351.0105,3.79962 .0145.38499-.53002.40549-.54446.02048-.0482-1.28412-.0908-2.56932-.01-3.85364 .15003-2.43179.45533-4.84698.64484-7.27257 .11535-1.17174.0997-2.38754.50758-3.50439 .43873-1.2013 2.32041.27755 1.39096,1.15605z"/>
   <path d="m-577.21027-61.77042c-.12217.45951-.0271.91244-.01,1.37286 .0146.38499-.40856.4534-.53732.09029-.13916-.39242-.13865-.82374-.51026-1.09981-.63454-.47141 1.26035-1.12729 1.05724-.36334z"/>
   <path d="m-575.27095-59.24517c-.0571-.82864-.13619-1.58306-.0635-2.41367 .0893-1.15771.415-2.2994.71716-3.42124 .18614-.99456.59146-1.89454 1.05497-2.78192 .43311-.73923.96926-1.25974 1.67277-1.70302 1.5846-.17908 1.82463.8677 2.40724,2.11707 .63604,1.8845 1.44787,3.69725 2.09139,5.57954l.39592,1.23909c.11727.36699-.40177.53281-.519.16581l-.3925-1.22873c-.62156-1.81994-1.20402-3.70364-2.54042-5.14061-.25574-.2469-1.45034-.89048-.68453-.85314-.24816.19989-.73051.37125-.87953.79527-.43593.71198-.88907,1.41793-1.11712,2.23356-.27607,1.05569-.53888,2.10738-.73784,3.17433-.091.76026-.35324,1.47679-.34857,2.23766 .005.74698-1.00501.74522-1.0564,0z"/>
   <path d="m-580.12-83.322c0.70547-1.0653 1.5364-2.0788 2.2256-3.1919 1.1654-1.8712 2.2877-3.7687 3.4053-5.6688 0.79475-1.3744 1.686-2.6876 2.565-4.0083 0.62147-0.99239 1.4178-1.597 2.4547-2.0606 1.3203-0.10956 2.0372 0.64863 2.8284 1.594 1.0375 1.1163 1.4724 2.5439 1.8709 3.9849 0.58616 2.0223 1.0679 4.0824 1.3543 6.1688 0.37568 2.1516 0.40494 4.3326 0.50085 6.5071 0.062 0.91265-0.0607 1.8159-0.0898 2.7272-0.0123 0.38507-0.55691 0.36763-0.54457-0.01743 0.029-0.90482-0.0421-1.7989 6e-3 -2.7037 0.0545-2.1476-0.12301-4.2996-0.43064-6.4248-0.36672-2.0406-0.65857-4.1002-1.3165-6.0761-0.54584-1.2784-1.2973-2.3897-2.1031-3.5139-0.56557-0.50367-1.0188-1.0936-1.8176-1.1664-0.88217 0.27799-1.5881 0.57778-2.174 1.3953-0.99752 1.209-1.867 2.4992-2.6346 3.8702-1.1197 1.9036-2.2441 3.8046-3.4117 5.6794-0.6743 1.089-1.2219 2.2421-1.7586 3.3656-0.31638 0.66226-1.3354 0.15137-0.93019-0.46056z"/>
   <path d="m-564.67-76.055c0.89317-0.57057 1.5607-1.4199 2.2735-2.192 0.7049-0.83808 1.307-1.7423 1.9711-2.6106 0.43493-0.61506 1.0234-1.0953 1.5921-1.5838 1.0686-0.31539 1.6415-0.07253 2.4067 0.62203 0.69061 1.0931 1.0085 2.2748 1.2701 3.5254 0.2196 2.1329 0.338 4.2743 0.28605 6.4186-0.0508 2.5638-0.40492 5.1088-0.72525 7.65-0.57775 2.8201-1.3174 5.5928-2.2727 8.3095-1.0945 2.5718-1.6708 5.3431-2.9953 7.8106-0.86724 0.97954-1.4802 1.9803-1.9351 3.1939-0.13521 0.36076-0.64541 0.16955-0.5102-0.19122 0.45424-1.212 0.64788-2.3634 0.62558-3.6704 0.5869-2.7178 1.9946-5.1623 2.7421-7.8397 0.83162-2.5952 1.7961-5.185 1.9491-7.9332 0.34486-2.4331 0.50245-4.882 0.54818-7.3386-0.0366-1.9657-0.0679-3.9391-0.57777-5.8532-0.20306-0.91439-0.37657-1.8376-0.49552-2.7606 0.0713-0.08893 0.38052-0.31391 0.36984-0.4612-0.4715 0.22006-1.0607 0.42883-1.4803 0.87884-0.82747 0.68327-1.6534 1.3759-2.3595 2.1933-0.64504 0.7731-1.4363 1.4968-1.6788 2.4984-0.20045 0.82802-1.7219-0.20743-1.004-0.66606z"/>
   <path d="m-625.33-77.903c0.41069-1.1308 1.0341-2.1975 1.5339-3.3072 1.0593-2.3357 1.9551-4.748 2.8759-7.1431 0.80854-2.1017 1.4929-4.249 2.3354-6.3381 0.43903-1.4101 0.9589-2.7882 1.5672-4.1294 0.47903-1.0673 1.1843-1.8189 2.1028-2.4871 1.4954-0.7733 2.4972-0.0494 3.6934 0.86957 1.1983 1.2798 2.3843 2.5924 3.3107 4.0845 1.1079 1.702 2.147 3.4639 3.1221 5.2481 0.84749 1.6192 1.5418 3.3116 2.2591 4.9907 0.15136 0.35429-0.35076 0.56579-0.50212 0.2115-0.71011-1.6622-1.3972-3.3376-2.2352-4.9409-0.95756-1.7537-2.052-3.3738-3.5514-4.7199-1.2456-1.0285-2.3005-2.2928-3.6798-3.1554-0.38824-0.19688-0.78017-0.42609-1.1715-0.59443-0.4964 0.47422-1.0014 0.8947-1.2958 1.5448-0.6786 1.2329-1.364 2.4764-1.9444 3.7669-0.8678 2.0704-1.8283 4.1022-2.653 6.19-0.95618 2.3192-2.0024 4.6657-2.3996 7.1542-0.17806 1.1038-0.29927 2.2117-0.37002 3.3164-0.1378 2.152-3.7336 1.4659-2.9975-0.5609z"/>
   <path d="m-642.94699-84.97065c.6621-.54598 1.1951-1.2177 1.74602-1.86115 .72616-1.13647 1.40846-2.30077 2.1161-3.44916 .19564-.34323.42929-.66238.64381-.99337 .20953-.32331.66243-.02041.4529.30289-.21154.32638-.44243.64077-.63485.97953-.70443,1.14316-1.42188,2.28109-2.05793,3.46407-.28577.78287-.61441,1.56605-.75686,2.39784-.20619,1.20402-2.45164-.06349-1.50919-.84065z"/>
   <path d="m-629.82099-95.16542c.80492.11022 1.42738.59629 2.12662.97918 .90001.59124 1.82745,1.12984 2.74548,1.68596 .84002.4458 1.52687,1.0643 2.18626,1.737 .47548.59398.92679,1.13347 1.481,1.62837 .3726.31751.69544.69974 1.01793,1.05862l-.30542.53801c-.21643.38125-.0678.20954-.44688.42975l-.5279.30667c-.36613-.35236-.7468-.70996-1.08346-1.0969-.41876-.61661-.86817-1.17111-1.37585-1.72748-.57312-.5576-1.13942-1.13336-1.79205-1.60864-.834-.61932-1.66231-1.23042-2.64519-1.60765-.60847-.33108-1.22363-.61184-1.83712-.90157-.95453-.45078-.58928-1.56455.45658-1.42134z"/>
   <path d="m-591.44-96.449c0.70251-0.39578 1.2731-0.97909 1.8624-1.5185 1.0918-0.85946 1.9706-1.9373 2.9068-2.9556 0.62358-0.8066 1.3179-1.5522 2.0287-2.2806 0.7984-0.7643 1.5779-0.76832 2.6023-0.69677 1.2225 0.47823 2.0729 1.546 2.9714 2.4552 1.0884 1.2265 2.0179 2.5814 2.9962 3.8963 0.69987 1.0139 1.4016 2.0055 1.9422 3.1122 0.19483 0.46978 0.0578 0.96199-0.0116 1.4488-0.0544 0.38141-0.19439 0.40896-0.51091 0.1893-0.35589-0.24698-0.74582-0.49134-0.9927-0.85371-0.59334-1.0098-1.0524-2.0901-1.672-3.0885-0.78938-1.3506-1.6192-2.6569-2.7265-3.7781-0.7049-0.70324-1.3493-1.4115-2.3662-1.7067-0.43886 0.0273-0.79232-0.18549-1.181 0.2482-0.75295 0.60573-1.4999 1.2168-2.2084 1.8763-0.96618 0.98269-1.98 1.9263-2.7341 3.0897-0.4838 0.64733-1.0008 1.2866-1.3668 2.013-0.67312 1.3358-2.8431-0.71623-1.5399-1.4504z"/>
   <path d="m-661.85896-82.29162c.10474-.79241.19202-1.59514.32445-2.38535 .18151-1.12661.33001-2.25368.4202-3.3907 .0603-.95334.429-1.75765.91762-2.55686 .92811-.97623 1.81007-.88317 2.99654-.72736 1.27318.37258 2.38975.9452 3.49761,1.65512 1.15696.94809 2.27116,1.91661 3.34848,2.9543 .81155.66394 1.37848,1.49156 1.91825,2.37146 .20145.3284-.12679.60283-.41753.35005-.75713-.65827-1.46494-1.34417-2.07578-2.14649-1.00733-1.02338-1.9817-2.11529-3.21355-2.87545-.97995-.618-1.89314-1.34933-3.10991-1.17989-.5421.19482-1.10637.25794-1.51293.70304-.28887.55788-.70659,1.05497-.76739,1.75019-.29434,1.06544-.48095,2.14563-.57356,3.25253-.061.8226-.17938,1.63999-.29671,2.45045-.14925,1.03088-1.59229.80761-1.45579-.22503z"/>
   <path d="m-617.66455-51.02657c.426.70983.49675,1.51621.58045,2.32759 .23763,1.48781.34513,2.74489-.34372,4.11588l.0995.82015c.0464.38247-.4945.44807-.54088.0656l-.0992-.81805c-.97331-1.13339-1.17957-2.3505-1.40174-3.79803-.15849-.83279-.35392-1.6567-.0502-2.46993 .43854-1.17419 1.11084-1.31794 1.75582-.24321z"/>
   <path d="m-612.25901-52.37291c.0508,1.01305-.0883,2.21183-.0879,3.30145 .0695,1.33471-.26058,2.58689-.1258,3.90745 .0391.38327-.49423.44342-.54142.06106-.16459-1.33361-.74835-2.52653-.83879-3.88528-.11508-1.05086-.32159-2.19395-.47029-3.1623-.22282-1.45102 1.9906-1.68858 2.06417-.22238z"/>
   <path d="m-606.43-57.428c0.0933 1.0903-0.13734 2.1409-0.31343 3.212-0.0625 2.0722-0.93229 3.8934-1.5133 5.8349-0.11044 0.3691-0.46596 0.35475-0.54438-0.02246-0.41239-1.9835-1.0356-3.8798-0.85898-5.9424-0.0752-0.9308-0.21775-1.8613-0.28648-2.788-0.18456-2.4884 3.3038-2.7801 3.5166-0.29394z"/>
   <path d="m-602.57347-52.34447c-.14811.91892-.36199,1.8463-.49522,2.78101-.12863,1.09359-.49614,2.10612-.69195,3.18336-.0689.37905-.53986.33868-.54286-.04658-.009-1.111-.18417-2.18537-.0277-3.29775 .0964-.9111.14229-1.82076.14914-2.72949 .009-1.14006 1.79003-1.01611 1.60862.10946z"/>
   <path d="m-597.04645-54.73067c-.25354,1.30961-.77361,2.654-1.15116,3.96435-.53804,1.75469-1.35491,3.30471-1.65863,5.1274-.0633.38003-.60077.29047-.53744-.08956 .30047-1.8031.0847-3.53424.13406-5.35121 .0195-1.30834-.11861-2.62919-.22795-3.89633-.20973-2.43039 3.9048-2.14961 3.44112.24534z"/>
   <path d="m-588.32 13.046c0.70274 0.92348 1.516 1.7733 2.2987 2.637 1.9456 1.2869 3.8919 2.7585 5.5395 4.441 1.9738 2.0812 3.9213 4.1742 5.892 6.2668 1.5845 1.71 3.6282 2.9077 5.5212 4.2545 1.912 1.1081 3.948 1.757 6.0559 2.3575 2.8782 0.65635 5.8518 0.71152 8.7922 0.71997 4.213-0.12156 8.4093-0.51036 12.559-1.2409 4.8242-0.8069 9.4777-2.3271 14.047-4.0356 3.8019-1.4758 7.5012-3.2036 11.139-5.0451 1.9447-1.0656 3.926-2.0653 5.874-3.1197 1.1271-0.61884 2.2146-1.0462 3.4644-1.2125 0.7729 0.38956 1.6035 0.61175 2.381 0.91587 0.50742 0.19847 0.46606 0.15067 0.35474 0.68402-0.17217 0.82483-0.40254 1.6656-0.59245 2.5103-1.0736 0.9973-2.191 1.6341-3.6629 1.9808-2.1199 0.58958-4.2103 1.284-6.3271 1.8897-3.9291 1.249-7.7956 2.6768-11.674 4.0737-4.751 1.6215-9.5357 3.1435-14.423 4.3053-4.283 0.93246-8.5826 1.841-12.967 2.1492-3.3548 0.30162-6.7331 0.51897-10.073-0.07538-2.6606-0.5731-5.3102-1.5493-7.4586-3.2586-2.15-1.6069-4.0678-3.2857-5.7274-5.4198-1.8505-2.1692-3.5827-4.4284-5.4324-6.588-1.5416-1.7269-2.9282-3.6047-4.4036-5.3637-0.92892-0.78644-1.851-1.5914-2.7794-2.3668-1.1758-0.98203 0.67351-2.6786 1.6012-1.4594z"/>
   <path d="m-558.28-3.4748c2.1345 0.2582 4.2553-0.02605 6.3642-0.36719 5.1825-0.62918 10.129-2.3549 15.03-4.0699 5.487-1.8921 10.854-4.0942 16.128-6.513 3.5327-1.8214 6.8224-4.0462 10.08-6.3101 2.0761-1.4496 4.1632-2.8738 6.1657-4.4207 1.4681-1.1097 2.7688-2.3942 4.014-3.7369 0.70704-0.71852 1.2474-1.5091 1.7585-2.3634 0.0566-0.20535 9e-3 -0.42592 0.0141-0.63888 0.27167 0.0446-1.4347-0.53067-1.7196-0.61457-2.955-0.52175-5.9871-0.40738-8.9717-0.22191-4.1094 0.18321-8.1858 0.80611-12.255 1.3781-3.9433 0.63791-7.8911 1.2494-11.827 1.9308-0.53686 0.09293-0.66828-0.66633-0.13141-0.75925 3.9441-0.68263 7.9-1.2957 11.851-1.9346 4.0878-0.57454 8.1846-1.0594 12.28-1.5625 3.106-0.34627 6.183-0.86931 9.2912-1.1786 1.8058 0.07466 3.5091-0.03146 4.6244 1.6103 0.2308 1.2079 0.35354 2.1572-0.32877 3.2651-0.62306 1.2028-1.2112 2.4644-2.2127 3.4066-1.4836 1.333-3.0093 2.648-4.681 3.7641-2.1875 1.4205-4.3213 2.9286-6.6705 4.0812-3.5763 1.8322-7.2504 3.4621-10.96 5.0056-5.2954 2.4286-10.685 4.6401-16.195 6.54-4.9513 1.7326-9.9013 3.469-14.793 5.3647-2.2275 0.72511-4.3908 1.605-6.6074 2.3416-2.6869 0.89287-3.0592-4.3365-0.24829-3.9965z"/>
  </g>
  <path d="m496.06 523.11c7.3192-4.3317 14.576-8.8185 22.205-12.59 4.5436-2.3552 5.185-2.7155-8.1324 4.7107-0.46046 0.25666 0.88674-0.57054 1.3324-0.85225 1.0201-0.64493 2.0406-1.2816 3.0431-1.9539 1.8956-1.2737 3.7618-2.5914 5.634-3.8996 1.9508-1.5015 4.0364-2.8092 6.0604-4.2054 1.1646-0.70932 2.0462-1.7449 2.8574-2.8213l12.243-5.3754c-0.69789 1.2482-1.5877 2.3882-2.6573 3.3359-2.093 1.3167-4.1468 2.7143-6.1362 4.1863-1.8455 1.328-3.7232 2.5998-5.5638 3.9312-6.214 3.9006-12.325 8.0347-18.981 11.189-0.61307 0.31546-1.2303 0.62293-1.8392 0.94636-0.66381 0.35259-1.3211 0.7174-1.9787 1.0815-8.5636 4.7417 13.613-8.0204 5.7279-3.3383-0.45709 0.27147-0.90971 0.55035-1.3646 0.82555l-12.45 4.829z" fill="#de9696" stroke="#000" stroke-linejoin="round" stroke-width="2.3683"/>
  <path d="m497.67 530.74c-23.383 3.7671-46.032 12.467-69.604 15.249-11.307 0.48432-22.697 2.9436-33.423 5.9644-5.2481 1.3705-11.977-1.4899-16.374 2.1382-0.61976 3.639 0.21138 9.1313-4.2764 10.607-12.968-1.411-25.682 3.4594-37.84 7.2586-18.532 5.9288-33.005 21.995-37.165 41.02-7.9562 30.648-9.7402 62.816-18.428 93.068 0.97096 4.5551 5.9078 0.78783 7.5962-1.2098 22.344-21.787 52.597-34.754 71.029-60.742 11.917-16.469 19.664-35.607 25.386-54.946-0.9982-4.587 5.0121-6.3757 5.0923-10.86 1.0362-3.3874-1.3182-7.0432-1.266-10.016 2.8904-1.1596 3.2606-4.4464 1.463-6.6397-0.51899-4.2291 5.3218-1.9779 7.6125-1.9647 22.046 4.6326 45.847 10.66 67.871 2.6118 14.145-5.7424 29.68-13.768 36.012-28.528 0.50203-2.1559-1.8101-3.3589-3.6856-3.0103z" fill="url(#c)"/>
  <path d="m694.05 433.57c-26.497 0.60885-52.725 4.8114-78.663 10.072-5.5101 1.6653-10.142 5.6394-16.233 5.5706-10.21 1.6759-21.113 0.95024-31.088 3.3198-9.8168 13.857-21.606 26.568-30.047 41.357-0.94234 2.6778 4.3133 2.4729 0.9003 4.5014-9.486 8.2332-21.047 13.779-31.212 20.825-0.33248 3.7606 4.1945 7.1964 3.1901 11.614-0.12612 13.215-12.884 20.895-22.817 26.952-10.581 6.2538-21.852 11.455-33.311 15.53-3.4521 3.5654 3.0592 6.3805 5.036 8.6934 20.039 15.14 33.911 38.934 58.802 47.376 20.563 6.8521 42.744 3.5913 63.818 1.2831 22.526-2.971 44.112-10.986 64.781-20.075 11.363-5.444 22.906-10.528 33.564-17.106 3.2516-5.1288-5.9301-2.8896-6.0207-7.4555-0.73108-2.3839-3.4088-3.395-5.3455-3.0666-22.737-21.845-52.361-34.133-81.617-44.649-15.622-5.4719-32.226-7.4382-48.728-6.3864-3.1326-0.12789-5.4016-3.1256-8.8904-1.9412-2.6741 0.47385-7.845 1.3041-7.0617-3.0104 0.16519-3.3189 5.5118-1.3607 7.7088-2.307 23.978-0.74426 47.711-5.1646 70.152-13.728 28.423-10.154 56.823-21.473 81.134-39.677 12.221-9.1206 26.401-17.249 34.371-30.66 2.0614-5.0778-5.1562-5.8542-8.4965-6.3864-4.6144-0.58487-9.2786-0.70885-13.926-0.6471z" fill="url(#b)" stroke="#000" stroke-linejoin="round" stroke-width="5.9209"/>
  <path d="m103.68 474.2c-5.915 0.75583-13.239-0.84029-18.118 3.0103-0.60985 7.7989 7.9731 12.05 12.89 16.677 45.789 36.506 104.62 52.782 162.5 54.583 24.214 1.3422 48.455-1.3589 72.588-3.1184 2.448 0.16046 7.4442-0.96255 5.2048-4.0794-12.769-6.3296-26.934-9.9276-39.303-17.331-12.479-6.4632-22.65-16.399-33.036-25.39-16.276 9.4086-33.715 0.73031-50.212-4.4888-30.605-7.2255-60.595-18.835-92.449-19.497-6.6797-0.33059-13.372-0.52332-20.06-0.36573z" fill="url(#d)" stroke="#000" stroke-linejoin="round" stroke-width="4.5679"/>
 </g>
</svg>
