<?xml version='1.0' encoding='utf-8'?>
<svg xmlns="http://www.w3.org/2000/svg" version="1.1" id="Ebene_2" x="0px" y="0px" width="598.489px" height="1132.946px" viewBox="0 0 598.489 1132.946" enable-background="new 0 0 598.489 1132.946"> <g> <path fill="#5B6D0F" d="M225.029,1068.979c0,0,107.57-173.282,166.396-232.103c58.823-58.822,116.581-57.24,121.879-74.191 c0,0-15.369,27.028-52.995,64.649c-37.621,37.623-123.995,147.016-167.448,305.611h-91.145L225.029,1068.979z"/> <path fill="#597D07" d="M242.679,1132.946h-21.76c67.91-214.996,125.885-340.344,126.031-340.671l18.82,8.713l0.01,0.003 c-0.024,0.024-4.786,10.328-13.311,30.406C331.911,879.818,289.843,984.419,242.679,1132.946z"/> <path opacity="0.2" d="M349.516,838.397c-0.59,1.405-1.191,2.842-1.812,4.322c-0.271,0.651-0.548,1.316-0.828,1.989 c-0.621,1.487-1.258,3.023-1.906,4.592c-0.26,0.626-0.515,1.238-0.777,1.88c-0.834,2.021-1.688,4.096-2.561,6.229 c-0.093,0.224-0.181,0.431-0.272,0.661c-0.945,2.311-1.919,4.701-2.91,7.141c-0.333,0.817-0.674,1.669-1.014,2.503 c-0.671,1.661-1.349,3.34-2.04,5.061c-0.419,1.039-0.839,2.085-1.265,3.147c-0.652,1.632-1.316,3.286-1.985,4.97 c-0.448,1.122-0.893,2.238-1.347,3.385c-0.709,1.785-1.437,3.615-2.163,5.46c-0.499,1.264-0.993,2.519-1.503,3.81 c-0.983,2.503-1.979,5.048-2.991,7.645c-0.557,1.422-1.127,2.892-1.689,4.347c-0.621,1.592-1.242,3.191-1.87,4.819 c-0.63,1.632-1.267,3.281-1.906,4.944c-0.58,1.509-1.166,3.035-1.754,4.573c-0.68,1.773-1.359,3.548-2.048,5.359 c-0.552,1.445-1.111,2.928-1.67,4.402c-1.807,4.756-3.637,9.609-5.507,14.609c-0.051,0.139-0.098,0.262-0.149,0.396 c-0.834,2.231-1.683,4.515-2.529,6.793c-0.482,1.301-0.963,2.597-1.452,3.917c-0.854,2.303-1.713,4.638-2.578,6.986 c-0.482,1.311-0.966,2.631-1.452,3.958c-0.886,2.415-1.772,4.843-2.674,7.311c-0.44,1.212-0.887,2.448-1.331,3.672 c-3.148,8.668-6.361,17.629-9.64,26.879c-0.434,1.229-0.866,2.446-1.305,3.684c-0.97,2.75-1.95,5.532-2.932,8.334 c-0.491,1.401-0.982,2.807-1.478,4.223c-0.978,2.802-1.958,5.614-2.948,8.466c-0.478,1.377-0.957,2.771-1.438,4.158 c-3.396,9.831-6.846,19.939-10.347,30.33c-0.465,1.381-0.929,2.752-1.394,4.147c-1.007,2.997-2.018,6.03-3.035,9.074 c-0.567,1.709-1.136,3.419-1.706,5.139c-0.999,3.015-1.997,6.037-3.004,9.091c-0.575,1.756-1.158,3.532-1.739,5.304 c-1.019,3.107-2.036,6.216-3.062,9.374c-0.313,0.953-0.624,1.933-0.937,2.893c-2.068,6.389-4.152,12.871-6.247,19.437 c-0.547,1.717-1.092,3.407-1.641,5.136h-6.261c61.848-195.238,115.21-315.701,123.734-334.558l5.618,2.6l0.01,0.003 c-0.024,0.024-4.786,10.328-13.311,30.406c-0.733,1.729-1.5,3.549-2.291,5.42C349.961,837.332,349.738,837.869,349.516,838.397z"/> <path fill="#5B6D0F" d="M280.445,772.218c0,0-5.826-36.848-10.786-83.147c-4.958-46.303,16.032-201.989,1.163-187.124 C255.954,516.812,168.8,751.189,164.988,881.552C161.174,1011.912,280.445,772.218,280.445,772.218z"/> <g> <g> <path fill="#6B9406" d="M250.952,883.253c-0.109-274.356,121.398-519.892,151.614-576.399l0,0 c4.313-8.077,6.688-12.197,6.694-12.209l0,0l-17.962-10.363c-0.348,0.802-160.933,278.515-161.088,598.972l0,0H250.952 L250.952,883.253z"/> </g> </g> <path opacity="0.4" d="M391.298,284.282l6.724,3.879c-19.061,34.474-158.78,296.168-158.926,595.093h-8.886 C230.365,562.796,390.95,285.083,391.298,284.282z"/> <path fill="#657C0F" d="M148.733,945.475c0,0-22.961-22.221-29.629-65.179c-6.664-42.962-52.588-160.732-79.994-215.545 c-27.405-54.809-34.812-90.36-37.034-78.511c-2.222,11.851-6.666,5.186,12.592,90.363c19.259,85.18,79.253,421.455,123.696,393.309 C182.804,1041.765,148.733,945.475,148.733,945.475z"/> <path opacity="0.1" d="M119.104,880.296c6.668,42.958,29.629,65.179,29.629,65.179s33.837,95.672-9.977,124.154 c-42.746-26.163-94.592-314.973-112.238-393.025c-9.967-44.082-13.579-63.539-14.441-73.722 c5.581,14.331,14.067,35.942,27.032,61.869C66.516,719.564,112.44,837.334,119.104,880.296z"/> <g> <g> <path fill="#6B9406" d="M185.614,550.034c3.57-21.521,5.784-32.653,5.794-32.682l0,0h-0.005l-20.34-4.051 c-0.074,0.408-36.363,182.926-48.987,476.169l0,0l20.725,0.888C152.222,771.436,174.896,614.596,185.614,550.034L185.614,550.034 z"/> </g> </g> <path opacity="0.4" d="M136.889,989.469c11.731-272.444,43.878-449.283,48.441-473.331l6.074,1.213h0.005 c-0.011,0.029-2.224,11.161-5.794,32.682c-10.707,64.497-33.346,221.103-42.784,439.691L136.889,989.469z"/> <path fill="#D3006B" d="M184.095,526.583c0,0,66.065,10.89,95.966-47.401c29.894-58.289,49.504-115.327,49.502-134.333 c-0.009-19.011-6.562-45.807-21.053-40.036c-14.492,5.769-60.922,4.542-74.935,39.135 C219.564,378.545,172.551,498.229,184.095,526.583z"/> <path opacity="0.1" fill="#FFFFFF" d="M233.576,343.948c-10.169,25.108-37.7,95.002-47.635,142.307 c15.653-42.39,51.622-86.564,60.001-107.251c14.012-34.594,60.442-33.368,74.934-39.139c3.252-1.292,6.1-0.94,8.566,0.588 c0.077,1.499,0.12,2.969,0.12,4.396c-0.009-19.011-6.562-45.807-21.053-40.036C294.019,310.581,247.588,309.354,233.576,343.948z M184.095,526.583c-0.382-0.933-0.689-1.978-0.947-3.108C183.406,524.6,183.713,525.649,184.095,526.583z"/> <path fill="#D3006B" d="M173.188,522.537c0,0-11.236-37.703-4.705-76.658c6.53-38.96,13.992-81.343,0.582-114.373 c-13.414-33.024-20.28-53.593-20.28-58.889c-0.003-5.299-0.003-11.84-6.544-5.297c-6.542,6.546-36.436,64.831-36.407,135.263 C105.854,473.013,116.151,499.494,173.188,522.537z"/> <path opacity="0.1" fill="#FFFFFF" d="M128.805,292.151c2.119,8.933,8.678,27.476,19.52,54.169 c11.353,27.961,21.188,66.001,19.991,100.66c0.057-0.37,0.105-0.736,0.167-1.101c6.53-38.96,13.992-81.343,0.582-114.373 c-13.414-33.024-20.28-53.593-20.28-58.889c-0.003-5.299-0.003-11.84-6.544-5.297C139.913,269.646,134.637,278.534,128.805,292.151 z M166.558,465.411c-3.209,19.162-6.677,36.871-9.367,49.926c4.881,2.465,10.184,4.853,15.997,7.2c0,0-7.74-26.011-6.626-57.144 C166.561,465.4,166.558,465.406,166.558,465.411z"/> <path fill="#B5005B" d="M168.482,445.879c6.53-38.96,13.992-81.343,0.582-114.373c-6.608-16.269-11.62-29.5-15.012-39.384 c9.368-14.732,20.142-21.254,36.487-26.068c21.191-6.239,39.422,3.569,45.196,9.333c5.766,5.763,15.58,7.475,34.746,9.493 c14.015,1.479,22.261,15.505,25.695,22.953c-19.778,3.737-51.449,8.581-62.6,36.114c-14.012,34.598-61.025,154.281-49.481,182.635 c-7.172-0.664-10.908-4.046-10.908-4.046S161.951,484.834,168.482,445.879z"/> <path fill="#6B9406" d="M180.122,931.843c0,0,23.703-125.918,23.703-159.99s-11.48-53.7-15.554-34.072 c-4.074,19.631-75.551,168.877-68.144,326.645C127.534,1222.192,180.122,931.843,180.122,931.843z"/> <path fill="#9B0457" d="M276.342,286.336c10.487,4.08,16.912,15.159,19.834,21.498c-1.571,0.297-3.237,0.608-4.942,0.931 c7.223-1.363,13.396-2.409,17.276-3.952c1.276-0.509,2.486-0.752,3.64-0.782C305.988,294.767,291.376,276.685,276.342,286.336z M148.833,273.307c0.238,3.022,1.982,9.372,5.219,18.815c9.095-14.305,19.53-20.861,35.088-25.637 C185.185,259.597,170.566,239.64,148.833,273.307z"/> <path opacity="0.2" d="M148.833,273.307c0.238,3.022,1.982,9.372,5.219,18.815c9.095-14.305,19.53-20.861,35.088-25.637 c-0.405-0.706-0.928-1.553-1.556-2.463c-14.697,4.737-24.747,11.32-33.532,25.137c-2.548-7.436-4.157-12.919-4.849-16.405 C149.081,272.946,148.959,273.113,148.833,273.307z M279.268,284.808c-0.973,0.403-1.947,0.902-2.926,1.528 c9.115,3.544,15.153,12.371,18.498,18.787c0.272-0.049,0.548-0.102,0.822-0.154c-0.28,0.052-0.535,0.105-0.819,0.157 c0.504,0.965,0.952,1.879,1.334,2.708c-1.571,0.297-3.237,0.608-4.942,0.931c7.223-1.363,13.396-2.409,17.276-3.952 c1.276-0.509,2.486-0.752,3.64-0.782c-0.555-0.838-1.202-1.761-1.891-2.717c-0.57,0.129-1.152,0.299-1.749,0.537 c-2.95,1.174-7.276,2.062-12.334,3.021C293.541,299.147,288.018,289.619,279.268,284.808z"/> <path fill="#D182AE" d="M395.377,291.637c0,0,30.977-45.667,33.085-86.966c2.115-41.301-9.718-84.259-27.773-112.78 c-18.053-28.523-23.261-41.154-33.629-51.872c-10.369-10.72-27.914-10.015-17.687,0.56c10.231,10.576,52.021,43.344,61.545,87.686 C420.445,172.61,442.517,199.772,395.377,291.637z"/> <path fill="#D3006B" d="M346.301,35.337c0,0,0.016,0.048,0.03,0.116c-0.007-0.041,0.004-0.077,0.004-0.118L346.301,35.337z M346.564,36.437c1.707,7.274,11.023,50.195,5.787,99.695c-5.754,54.354-22.881,124.188,43.025,155.504 c47.14-91.865,25.068-119.027,15.541-163.372c-9.523-44.342-51.313-77.11-61.545-87.686 C347.802,38.952,346.953,37.59,346.564,36.437z"/> <path opacity="0.1" fill="#FFFFFF" d="M346.301,35.337c0,0,0.016,0.048,0.03,0.116c-0.007-0.041,0.004-0.077,0.004-0.118 L346.301,35.337z M349.373,40.579c-1.571-1.626-2.42-2.989-2.809-4.142c0.515,2.197,1.728,7.664,3.021,15.566 c16.497,15.682,42.261,42.639,49.481,76.261c9.35,43.511,30.724,70.525-13.005,158.312c2.918,1.774,5.981,3.481,9.315,5.061 c47.14-91.865,25.068-119.027,15.541-163.372C401.395,83.922,359.604,51.155,349.373,40.579z"/> <path fill="#D3006B" d="M477.965,217.323c10.329-9.601,22.545-20.072,34.94-30.447C500.34,196.707,487.649,207.417,477.965,217.323 z M405.34,293.286c66.261,11.362,97.464-14.878,124.101-61.264c26.639-46.384,50.646-89.251,50.646-89.251l-0.014,0.007 c-22.235,16.765-81.032,52.702-118.265,97.26C423.581,285.783,405.34,293.286,405.34,293.286z"/> <path opacity="0.1" fill="#FFFFFF" d="M405.34,293.286c5.377,0.926,10.505,1.574,15.441,2.009 c8.367-5.776,24.842-19.325,49.915-49.33c28.719-34.369,70.25-63.6,97.958-82.869c7.064-12.523,11.433-20.325,11.433-20.325 l-0.014,0.007c-22.235,16.765-81.032,52.702-118.265,97.26C423.581,285.783,405.34,293.286,405.34,293.286z M477.965,217.323 c10.329-9.601,22.545-20.072,34.94-30.447C500.34,196.707,487.649,207.417,477.965,217.323z"/> <path fill="#D182AE" d="M405.34,293.286c0,0,26.667-21.407,50.828-53.115c24.164-31.708,114.888-97.092,124.972-113.425 c10.082-16.337,10.222-24.805,14.386-20.5c4.168,4.308,7.043,19.071-13.739,35.226c-20.786,16.156-81.757,52.825-119.978,98.567 C423.581,285.783,405.34,293.286,405.34,293.286z"/> <path fill="#B5005B" d="M428.462,204.67c2.115-41.301-9.718-84.259-27.773-112.78c-0.242-0.388-0.462-0.741-0.701-1.124 c12.524-28.656,30.087-43.637,59.093-54.57c49.667-18.719,61.053,33.478,61.053,33.478c8.25-7.979,35.569-7.359,43.147,14.962 c4.232,12.461-1.746,42.619-7.85,66.83c-12.543,10.662-28.06,23.289-43.303,36.062c0.258-0.217,0.517-0.436,0.777-0.652 c-12.565,9.832-25.256,20.542-34.94,30.447c0.019-0.016,0.034-0.031,0.051-0.046c-9.206,8.561-16.921,16.433-21.848,22.895 c-24.161,31.708-50.828,53.115-50.828,53.115c-11.368-0.186-9.963-1.649-9.963-1.649S426.354,245.97,428.462,204.67z"/> <path fill="#9B0457" d="M566.147,123.259c-1.158,1.317-2.216,2.585-3.21,3.808c-0.968,1.186-1.844,2.32-2.682,3.426 c-0.004,0.004-0.005,0.012-0.012,0.015c3.809-18.584,6.097-36.86,3.036-45.873c-7.578-22.321-34.897-22.94-43.147-14.962 c0,0-2.555-11.66-10.481-21.983c0-0.001,0.003-0.003,0.007-0.005c27.985-20.586,46.57,17.643,58.564,17.842 c7.672,0.128,4.048,31.997,0.44,54.958C567.838,121.383,567.021,122.261,566.147,123.259z"/> <path fill="#D3006B" d="M446.438,41.617c-21.652,10.496-35.865,24.931-46.451,49.15c-1.589-2.518-3.045-4.872-4.442-7.147 c4.021-12.709,11.372-31.544,23.935-51.258c22.348-35.071,40.353-54.06,26.965,9.22C446.444,41.594,446.438,41.605,446.438,41.617z "/> <path fill="#D3006B" d="M566.147,123.259c20.468-23.368,27.362-18.124,27.369-18.119c-2.556,0.258-4.188,8.335-12.377,21.605 c-2.936,4.756-12.729,13.684-25.709,24.715c1.69-6.696,3.362-13.847,4.813-20.952C561.948,128.252,563.874,125.854,566.147,123.259 z"/> <path opacity="0.2" d="M592.692,104.799c-0.296,0.588-0.615,1.199-0.945,1.826c0.604-0.907,1.161-1.425,1.77-1.485 C593.513,105.139,593.252,104.946,592.692,104.799z M555.431,151.461c12.979-11.032,22.773-19.959,25.709-24.715 c4.677-7.575,7.211-13.45,9.003-17.152c-0.82,1.46-1.717,3-2.716,4.62c-2.935,4.755-12.732,13.684-25.708,24.714 c1.177-4.663,2.337-9.551,3.427-14.484c-1.822,2.132-3.465,4.164-4.901,6.065C558.793,137.614,557.121,144.765,555.431,151.461z"/> <path fill="#9B0457" d="M446.438,41.617c-0.043,0.021-0.08,0.043-0.123,0.063c3.989-1.953,8.227-3.774,12.765-5.483 c15.494-5.84,27.263-4.775,36.123-0.55c-5.911-34.296-30.678-29.644-44.205-24.274c-0.23,6.66-1.65,16.497-4.554,30.209 C446.444,41.594,446.438,41.605,446.438,41.617z M442.087,43.843c1.379-0.739,2.784-1.461,4.229-2.163 C444.877,42.383,443.466,43.103,442.087,43.843z"/> <path opacity="0.2" d="M399.987,90.767c0,0,38.106,53.775,35.145,69.083c-2.964,15.306,9.879,7.9,20.247-2.469 c10.37-10.371,3.949,33.578-4.938,54.317c-8.888,20.74,23.701-35.553,34.567-51.848c10.862-16.296,5.925,19.75-4.444,37.033 c-10.369,17.284,44.192-31.354,57.772-44.933c13.568-13.567,26.238-52.02,26.261-52.097c-0.665,14.682-4.878,34.602-9.166,51.613 c-12.543,10.662-28.06,23.289-43.303,36.062c0.258-0.217,0.517-0.436,0.777-0.652c-12.565,9.832-25.256,20.542-34.94,30.447 c0.019-0.016,0.034-0.031,0.051-0.046c-9.206,8.561-16.921,16.433-21.848,22.895c-24.161,31.708-50.828,53.115-50.828,53.115 c-11.368-0.186-9.963-1.649-9.963-1.649s30.977-45.667,33.085-86.966c2.115-41.301-9.718-84.259-27.773-112.78 C400.446,91.502,400.227,91.15,399.987,90.767z"/> <path opacity="0.7" fill="#FFFFFF" d="M405.34,293.286c0,0,6.422-2.641,19.631-14.345c2.082,2.664,1.386,11.353,10.277,5.795 c12.646-7.905,0,5.269,15.544-10.275c15.543-15.542,4.215-4.215,14.751-14.752c10.538-10.538,5.532,5.532,31.35-28.718 c25.82-34.249-43.729,60.066-25.817,52.163c7.363-3.247,8.669-0.885,7.659,3.023C459.907,295.652,436.502,298.629,405.34,293.286z"/> <path opacity="0.7" fill="#FFFFFF" d="M367.273,163.545c-10.005,26.333-13.696,51.614-10.779,91.985 c-12.674-24.617-11.545-54.887-8.338-84.103c32.512-39.005,27.285-89.289,35.451-81.122c8.169,8.167-2.106,60.068-12.117,112.758 c-10.011,52.689,6.322,60.066,11.59,70.078c5.271,10.011,15.02-2.634,15.02-8.692c0-3.829,3.997,1.17,8.336,3.979 c-3.176,7.262-6.828,14.966-11.059,23.208c-12.49-5.934-21.985-13.258-29.153-21.59c-15.264-54.188,7.373-112.824,11.062-125.996 C380.974,130.876,377.286,137.201,367.273,163.545z"/> <path opacity="0.2" d="M399.987,90.767c-1.589-2.518-3.045-4.872-4.442-7.147c4.021-12.709,11.372-31.544,23.935-51.258 c8.635-13.55,16.609-24.671,22.388-29.602c-19.763,33.47-27.128,53.269-28.531,64.97C408.271,74.282,403.88,81.859,399.987,90.767z "/> <path opacity="0.7" fill="#FFFFFF" d="M495.566,52.494c-2.03,1.898-0.844,6.458,2.64,10.184c3.49,3.725,7.96,5.21,9.985,3.314 c2.028-1.896,0.842-6.454-2.645-10.181C502.06,52.084,497.59,50.6,495.566,52.494z"/> <path opacity="0.7" fill="#FFFFFF" d="M493.265,45.515c0,0-8.256-11.124-29.251-4.485s-49.528,31.403-55.985,44.683 c-6.46,13.278,1.972,5.024,8.073-2.693c6.104-7.716,44.815-39.703,65.676-32.12c0,0,4.642,2.549,10.59,0 C496.134,49.284,493.265,45.515,493.265,45.515z"/> <path opacity="0.7" fill="#FFFFFF" d="M184.095,526.583c-3.117-7.653-1.941-21.992,1.675-39.483 c0.157,0.132,0.306,0.225,0.467,0.388c4.886,4.922,3.055,11.945,5.76,17.765c4.056-3.525,7.963-9.615,13.908-9.937 c-0.079,1.664-0.099,3.385,0.075,5.039c5.767-0.161,22.029-15.531,16.422-0.317c-1.53,4.16-3.392,8.618-6.17,12.129 c-2.723,3.437-6.525,5.614-7.903,9.984c7.479,0.795,15.773-3.083,22.323-6.266c5.46-2.648,11.469-6.049,16.445-9.503 c5.92-4.107,10.765-10.938,17.152-14.134c-1.913,3.913-6.128,7.456-8.961,10.799c-3.098,3.656-5.891,7.503-9.661,10.473 c-3.076,2.425-7.299,4.424-10.693,6.904C208.865,530.638,184.095,526.583,184.095,526.583z"/> <path opacity="0.7" fill="#FFFFFF" d="M105.833,402.583c-0.009-17.711,1.88-34.655,4.812-50.202 c0.259,20.482,0.784,40.961,1.42,61.466c0.784,25.293-0.553,50.8,13.737,73.256c4.415,6.938,11.755,16.41,21.104,15.058 c7.337-1.067,12.008-8.262,12.144-15.26c1.342,3.917,4.276,10.871,8.657,11.916c0.211-0.312,0.381-0.688,0.536-1.084 c1.999,14.897,4.944,24.803,4.944,24.803C116.151,499.494,105.854,473.013,105.833,402.583z"/> <path opacity="0.2" d="M246.854,325.859c0,0-0.119,0.119-0.341,0.348c0.11-0.094,0.222-0.182,0.333-0.272L246.854,325.859z M173.188,522.537c0,0,3.736,3.382,10.908,4.046c-11.544-28.354,35.469-148.037,49.481-182.635c0.985-2.431,2.18-4.623,3.46-6.718 c-9.805,12.477-24.567,34.506-32.816,62.553c-13.098,44.529-12.224,43.221-12.224,32.745c0-10.477,6.547-51.954,0-27.942 c-6.547,24.011-13.751,56.101-12.224,37.983c1.528-18.119,3.055-19.646-2.401-14.188c-5.457,5.457,14.435-67.132-4.809-86.373 c-0.019-0.023-0.043-0.034-0.064-0.058c8.409,31.248,1.846,68.958-4.016,103.928C161.951,484.834,173.188,522.537,173.188,522.537z "/> <path d="M306.465,305.512"/> <path opacity="0.2" d="M182.413,517.691c89.394-5.255,106.316-102.718,124.521-134.582c18.208-31.867,17.561-67.504,17.561-67.504 l0,0c3.431,8.35,5.067,19.762,5.069,29.244c0.002,19.006-19.608,76.044-49.502,134.333c-29.901,58.291-95.966,47.401-95.966,47.401 C183.138,524.231,182.616,521.198,182.413,517.691z"/> <path fill="#D182AE" d="M233.576,343.948c-1.738,4.294-3.986,9.902-6.565,16.475c16.258-32.792,45.987-41.042,69.524-46.694 c19.059-4.57,23.723-4.495,24.818-4.055c-3.254-4.687-7.507-6.987-12.843-4.861C294.019,310.581,247.588,309.354,233.576,343.948z"/> <path fill="#D182AE" d="M148.785,272.617c0,5.296,6.866,25.865,20.28,58.889c6.099,15.022,7.855,31.983,7.372,49.673 c-0.006-0.022-0.009-0.047-0.015-0.069c-8.998-48.625-28.678-88.432-35.095-94.849c-6.357-6.361-2.815-13.634-2.746-13.772 c1.538-2.547,2.803-4.312,3.66-5.168C148.781,260.777,148.781,267.318,148.785,272.617z"/> <path opacity="0.7" fill="#FFFFFF" d="M209.221,276.094c-0.695,3.682,3.679,7.597,9.77,8.744c6.087,1.143,11.584-0.915,12.276-4.6 c0.695-3.685-3.679-7.6-9.769-8.742C215.41,270.351,209.911,272.407,209.221,276.094z"/> <path opacity="0.7" fill="#FFFFFF" d="M196.773,271.002c0,0-44.116,9.426-32.615,39.024c11.5,29.599,14.087,23.356,11.5,14.52 c-9.397-32.111,4.444-40.536,18.853-40.536C208.92,284.01,203.141,269.178,196.773,271.002z"/> <path fill="#D3006B" d="M327.749,831.485c0,0-55.246-37.831-36.526-100.609c18.725-62.776,44.012-117.536,57.162-131.255 c13.152-13.727,36.427-28.549,42.896-14.358c6.476,14.19,40.857,45.421,27.053,80.095 C404.52,700.037,355.697,818.992,327.749,831.485z"/> <path opacity="0.1" fill="#FFFFFF" d="M391.28,585.262c-6.469-14.19-29.743,0.632-42.896,14.358 c0.985-1.034,2.036-2.064,3.127-3.098c2.839,0.605,5.135,2.322,6.591,5.503c6.478,14.19,40.863,45.418,27.05,80.094 c-8.255,20.738-12.829,77.517-30.842,118.962c25.539-41.034,54-110.562,64.022-135.725 C432.138,630.683,397.756,599.453,391.28,585.262z M330.578,829.897c-0.964,0.632-1.906,1.176-2.829,1.588 C328.672,831.073,329.614,830.529,330.578,829.897z"/> <path fill="#D3006B" d="M338.425,836.109c0,0,34.194-19.462,56.42-52.113c22.233-32.652,46.154-68.425,78.686-83.005 c32.528-14.571,51.712-24.682,55.38-28.507c3.663-3.825,8.189-8.551,8.386,0.696c0.195,9.257-18.527,72.032-67.261,122.879 C421.308,846.912,395.558,858.914,338.425,836.109z"/> <path opacity="0.1" fill="#FFFFFF" d="M537.296,673.18c-0.196-9.247-4.723-4.521-8.386-0.696 c-3.668,3.825-22.852,13.936-55.38,28.507c-32.531,14.58-56.452,50.353-78.686,83.005c-0.212,0.308-0.427,0.605-0.643,0.908 c23.107-25.856,56.518-46.53,84.062-58.87c26.29-11.781,43.854-20.637,51.561-25.626 C535.033,686.544,537.37,676.474,537.296,673.18z M382.734,799.418c-20.726,23.25-44.31,36.69-44.31,36.69 c5.822,2.323,11.302,4.268,16.532,5.862c7.086-11.288,16.834-26.476,27.765-42.539C382.729,799.429,382.73,799.421,382.734,799.418 z"/> <path fill="#B5005B" d="M394.845,783.996c22.233-32.652,46.154-68.425,78.686-83.005c16.026-7.184,28.797-13.271,38.076-18.063 c3.428-17.12,0.158-29.28-8.313-44.062c-10.991-19.157-30.944-24.689-39.101-24.52c-8.15,0.174-16.419-5.378-31.658-17.176 c-11.145-8.62-26.805-4.198-34.438-1.194c11.7,16.379,31.225,41.78,20.236,69.382c-13.813,34.68-62.636,153.635-90.584,166.128 c5.637,4.48,10.676,4.624,10.676,4.624S372.619,816.647,394.845,783.996z"/> <path fill="#9B0457" d="M389.191,582.181c0.812,0.82,1.519,1.828,2.089,3.081c1.732,3.801,5.469,8.826,9.744,14.802 c-1.006-1.411-1.995-2.786-2.928-4.089c6.498-2.558,18.8-6.119,29.194-1.808C423.106,576.798,400.051,579.754,389.191,582.181z M504.001,640.145c7.931,14.209,10.934,26.163,7.605,42.782c8.874-4.581,14.526-7.959,16.789-9.975 C535.982,633.605,511.623,637.905,504.001,640.145z"/> <path opacity="0.2" d="M528.507,672.295c-2.906,2.036-7.863,4.884-14.848,8.493c3.215-16.06,0.507-27.765-6.83-41.346 c-1.083,0.22-2.046,0.472-2.828,0.702c7.931,14.209,10.934,26.163,7.605,42.782c8.874-4.581,14.526-7.959,16.789-9.975 C528.436,672.723,528.464,672.52,528.507,672.295z M400.146,593.834c-2.985-4.188-5.497-7.822-6.816-10.713 c-0.266-0.582-0.569-1.112-0.892-1.595c-1.157,0.213-2.265,0.43-3.246,0.654c0.812,0.82,1.519,1.828,2.089,3.081 c1.732,3.801,5.469,8.826,9.744,14.802c-1.006-1.411-1.995-2.786-2.928-4.089c0.851-0.335,1.807-0.684,2.839-1.035 c-0.172-0.233-0.315-0.448-0.483-0.678c0.162,0.227,0.324,0.455,0.486,0.678c6.851-2.315,17.319-4.518,26.353-0.772 c-0.272-1.13-0.63-2.166-1.057-3.131C416.589,588.467,406.007,591.524,400.146,593.834z"/> <path opacity="0.7" fill="#FFFFFF" d="M327.749,831.485c7.546-3.371,16.613-14.542,26.101-29.677 c-0.205-0.016-0.38-0.05-0.607-0.045c-6.936,0.177-10.468,6.517-16.449,8.849c-0.489-5.35,0.897-12.446-3.167-16.791 c-1.095,1.251-2.272,2.505-3.542,3.584c-4.056-4.103-5.17-26.456-11.643-11.587c-1.771,4.062-3.511,8.566-3.931,13.025 c-0.409,4.367,0.832,8.569-1.197,12.68c-5.951-4.599-9.258-13.141-11.79-19.968c-2.109-5.69-4.102-12.301-5.304-18.237 c-1.434-7.06-0.208-15.345-2.613-22.07c-1.323,4.148-0.725,9.621-0.997,13.993c-0.292,4.784-0.934,9.498-0.266,14.247 c0.542,3.881,2.21,8.245,2.949,12.385C307.055,817.284,327.749,831.485,327.749,831.485z"/> <path opacity="0.7" fill="#FFFFFF" d="M470.035,796.059c12.257-12.787,22.614-26.333,31.25-39.585 c-14.356,14.613-28.898,29.037-43.542,43.406c-18.061,17.728-34.738,37.075-60.589,43.408c-7.985,1.955-19.84,3.724-25.655-3.723 c-4.566-5.84-2.96-14.266,1.781-19.419c-3.676,1.902-10.604,4.895-14.495,2.62c0.066-0.375,0.2-0.761,0.365-1.15 c-11.743,9.369-20.726,14.492-20.726,14.492C395.558,858.914,421.308,846.912,470.035,796.059z"/> <path opacity="0.2" d="M421.209,643.167c0.013,0.14,0.039,0.283,0.054,0.426c-0.004-0.317-0.01-0.485-0.01-0.485L421.209,643.167z M394.845,783.996c19.952-29.307,41.294-61.083,68.979-77.838c-0.032,0.002-0.055-0.006-0.085,0 c-27.207,0.585-63.046,66.765-63.211,59.052c-0.169-7.717-0.122-5.555-11.551,8.587c-11.429,14.146,5.567-14.016,17.439-35.887 c11.881-21.87-12.075,12.611-19.323,20.183c-7.244,7.568-7.518,9.11,13.822-32.108c13.442-25.963,18.013-52.08,19.565-67.872 c-0.525,2.396-1.179,4.808-2.148,7.245c-13.813,34.68-62.636,153.635-90.584,166.128c5.637,4.48,10.676,4.624,10.676,4.624 S372.619,816.647,394.845,783.996z"/> <path d="M392.273,587.185"/> <path opacity="0.2" d="M335.112,826.224c-60.928-65.626-5.741-147.718,3.148-183.324c8.894-35.604,34.011-60.897,34.011-60.897l0,0 c-8.251,3.661-17.329,10.77-23.887,17.618c-13.149,13.719-38.437,68.479-57.162,131.255 c-18.72,62.778,36.526,100.609,36.526,100.609C330.063,830.449,332.544,828.619,335.112,826.224z"/> <path fill="#D182AE" d="M391.28,585.262c-2.384-5.229-7.048-6.509-12.638-5.374c1.094,0.442,4.517,3.614,15.118,20.095 c13.092,20.362,28.861,46.881,17.918,81.813c2.686-6.533,4.942-12.134,6.654-16.439 C432.138,630.683,397.756,599.453,391.28,585.262z"/> <path fill="#D182AE" d="M528.91,672.484c-3.668,3.825-22.852,13.936-55.38,28.507c-14.795,6.631-27.792,17.663-39.68,30.774 c0.02-0.014,0.038-0.029,0.055-0.038c40.131-28.897,81.88-44.034,90.951-44.231c8.99-0.196,11.461-7.895,11.51-8.044 c0.65-2.906,0.957-5.059,0.93-6.271C537.1,663.933,532.573,668.659,528.91,672.484z"/> <path opacity="0.7" fill="#FFFFFF" d="M482.854,633.193c-2.049,3.142-7.912,2.945-13.107-0.441 c-5.184-3.383-7.729-8.677-5.683-11.814c2.046-3.138,7.91-2.94,13.101,0.446C482.356,624.766,484.902,630.055,482.854,633.193z"/> <path opacity="0.7" fill="#FFFFFF" d="M495.365,638.126c0,0,25.346,37.322-3.435,50.742c-28.781,13.425-26.328,7.125-18.352,2.532 c29.003-16.69,24.83-32.349,14.423-42.319C477.595,639.12,492.026,632.402,495.365,638.126z"/> <path opacity="0.1" d="M191.027,870.299c-5.594,33.325-10.905,61.544-10.905,61.544s-24.734,136.558-42.667,171.476h-12.812 c-2.052-7.27-3.62-19.762-4.516-38.894c-0.261-5.525-0.415-11.042-0.484-16.542C130.571,991.533,158.956,928.364,191.027,870.299z"/> <path fill="#6B9406" d="M226.216,1132.946c0,0,5.248-79.086,23.616-120.195c18.367-41.108,35.859-97.962,35.859-129.45 s59.475-98.833,34.114-177.555c0,0-213.421,268.376-204.674,427.2H226.216z"/> <path opacity="0.2" fill="#FFFFFF" d="M285.691,883.3c0,31.488-17.492,88.342-35.859,129.45 c-18.368,41.109-23.616,120.195-23.616,120.195H192.55c6.006-34.483,16.391-86.546,31.982-140.247 c27.032-93.104,41.447-109.326,70.881-168.792c29.434-59.465,19.833-112.318,19.833-112.318v-0.002 c2.923-3.786,4.559-5.841,4.559-5.841C345.166,784.467,285.691,851.812,285.691,883.3z"/> <path fill="#6B9406" d="M285.422,1132.946c0,0,14.114-43.277,18.819-57.389c4.704-14.112,16.855-52.14,10.977-64.296 c-5.879-12.153-2.35,14.896-16.856,29.402c-14.507,14.508-52.532,73.612-61.944,92.282H285.422z"/> <path opacity="0.1" d="M298.361,1040.664c4.994-4.995,7.85-11.471,9.686-17.325c-0.083,12.054-21.071,44.41-28.897,60.059 c-5.474,10.947-16.096,35.628-22.018,49.549h-20.714C245.83,1114.276,283.854,1055.171,298.361,1040.664z"/> </g> </svg>